<?xml version="1.0" encoding="utf-8"?>
<!-- Generator: Adobe Illustrator 21.0.0, SVG Export Plug-In . SVG Version: 6.00 Build 0)  -->
<svg version="1.1" id="Layer_1" xmlns="http://www.w3.org/2000/svg" xmlns:xlink="http://www.w3.org/1999/xlink" x="0px" y="0px"
	 viewBox="0 0 512 512" style="enable-background:new 0 0 512 512;" xml:space="preserve">
<style type="text/css">
	.st0{fill:#A8A8A8;}
	.st1{fill:#204669;}
	.st2{fill:#926BB8;}
	.st3{fill:#FFB464;}
	.st4{fill:#FFCFC5;}
	.st5{fill:#FFBBB0;}
</style>
<g>
	<path class="st0" d="M199.8,256c0,1.7,0.6,3.4,1.9,4.6c2.5,2.5,7,2.7,9.5,0.2c1.3-1.3,1.8-3,1.8-4.8c0.1-1.8-0.5-3.6-1.8-4.8
		c-2.6-2.5-7.1-2.3-9.5,0.2C200.4,252.7,199.8,254.4,199.8,256z M207.3,228.1c-0.9,1.4-1.2,3.2-0.7,5c0.9,3.4,4.7,5.8,8.2,4.9
		c1.7-0.4,3.1-1.7,4-3.3c0.9-1.5,1.3-3.3,0.9-5.1c-1-3.5-5-5.5-8.4-4.6C209.5,225.5,208.1,226.6,207.3,228.1z M227.7,207.7
		c-1.5,0.8-2.6,2.2-3.1,3.9c-0.9,3.4,1.2,7.4,4.6,8.4c1.7,0.5,3.6,0.1,5.1-0.9c1.6-0.8,2.8-2.2,3.3-4c0.9-3.5-1.5-7.3-4.9-8.2
		C230.9,206.5,229.2,206.8,227.7,207.7z M255.6,200.2c-1.7,0-3.4,0.6-4.6,1.9c-2.5,2.5-2.7,7-0.2,9.5c1.3,1.3,3,1.8,4.8,1.8
		c1.8,0.1,3.6-0.5,4.8-1.8c2.5-2.6,2.3-7.1-0.2-9.5C259,200.8,257.3,200.2,255.6,200.2z M283.6,207.7c-1.4-0.9-3.2-1.2-5-0.7
		c-3.4,0.9-5.8,4.7-4.9,8.2c0.4,1.7,1.7,3.1,3.3,4c1.5,0.9,3.3,1.3,5.1,0.9c3.5-1,5.5-5,4.6-8.4C286.2,209.8,285,208.5,283.6,207.7z
		 M304,228.1c-0.8-1.5-2.2-2.6-3.9-3.1c-3.4-0.9-7.4,1.2-8.4,4.6c-0.5,1.7-0.1,3.6,0.9,5.1c0.8,1.6,2.2,2.8,4,3.3
		c3.5,0.9,7.3-1.5,8.2-4.9C305.2,231.3,304.9,229.6,304,228.1z M311.5,256c0-1.7-0.6-3.4-1.9-4.6c-2.5-2.5-7-2.7-9.5-0.2
		c-1.3,1.3-1.8,3-1.8,4.8c-0.1,1.8,0.5,3.6,1.8,4.8c2.6,2.5,7.1,2.3,9.5-0.2C310.9,259.4,311.5,257.7,311.5,256z M304,284
		c0.9-1.4,1.2-3.2,0.7-5c-0.9-3.4-4.7-5.8-8.2-4.9c-1.7,0.4-3.1,1.7-4,3.3c-0.9,1.5-1.3,3.3-0.9,5.1c1,3.5,5,5.5,8.4,4.6
		C301.8,286.6,303.2,285.4,304,284z M283.6,304.4c1.5-0.8,2.6-2.2,3.1-3.9c0.9-3.4-1.2-7.4-4.6-8.4c-1.7-0.5-3.6-0.1-5.1,0.9
		c-1.6,0.8-2.8,2.2-3.3,4c-0.9,3.5,1.5,7.3,4.9,8.2C280.4,305.6,282.1,305.3,283.6,304.4z M255.6,311.9c1.7,0,3.4-0.6,4.6-1.9
		c2.5-2.5,2.7-7,0.2-9.5c-1.3-1.3-3-1.8-4.8-1.8c-1.8-0.1-3.6,0.5-4.8,1.8c-2.5,2.6-2.3,7.1,0.2,9.5
		C252.3,311.3,254,311.9,255.6,311.9z M227.7,304.4c1.4,0.9,3.2,1.2,5,0.7c3.4-0.9,5.8-4.7,4.9-8.2c-0.4-1.7-1.7-3.1-3.3-4
		c-1.5-0.9-3.3-1.3-5.1-0.9c-3.5,1-5.5,5-4.6,8.4C225.1,302.2,226.3,303.6,227.7,304.4z M207.3,284c0.8,1.5,2.2,2.6,3.9,3.1
		c3.4,0.9,7.4-1.2,8.4-4.6c0.5-1.7,0.1-3.6-0.9-5.1c-0.8-1.6-2.2-2.8-4-3.3c-3.5-0.9-7.3,1.5-8.2,4.9
		C206.1,280.8,206.4,282.5,207.3,284z M209,256c0.1,0.7-0.1,1.4-0.7,2c-1.6,1.7-4.5,0.1-4.6-2c0.1-2,3-3.7,4.6-2
		C208.9,254.6,209.1,255.4,209,256z M215.3,232.7c-0.3,0.6-0.8,1.2-1.6,1.4c-2.3,0.7-3.9-2.2-3-4c1.1-1.7,4.4-1.7,5,0.6
		C215.9,231.5,215.7,232.2,215.3,232.7z M232.3,215.7c-0.6,0.4-1.3,0.6-2.1,0.4c-2.3-0.6-2.3-3.9-0.6-5c1.8-0.9,4.7,0.7,4,3
		C233.5,214.9,233,215.4,232.3,215.7z M255.6,209.4c-0.7,0.1-1.4-0.1-2-0.7c-1.7-1.6-0.1-4.5,2-4.6c2,0.1,3.7,3,2,4.6
		C257,209.3,256.3,209.5,255.6,209.4z M278.9,215.7c-0.6-0.3-1.2-0.8-1.4-1.6c-0.7-2.3,2.2-3.9,4-3c1.7,1.1,1.7,4.4-0.6,5
		C280.2,216.3,279.5,216.1,278.9,215.7z M296,232.7c-0.4-0.6-0.6-1.3-0.4-2.1c0.6-2.3,3.9-2.3,5-0.6c0.9,1.8-0.7,4.7-3,4
		C296.8,233.9,296.3,233.4,296,232.7z M302.3,256c-0.1-0.7,0.1-1.4,0.7-2c1.6-1.7,4.5-0.1,4.6,2c-0.1,2-3,3.7-4.6,2
		C302.3,257.4,302.2,256.7,302.3,256z M296,279.3c0.3-0.6,0.8-1.2,1.6-1.4c2.3-0.7,3.9,2.2,3,4c-1.1,1.7-4.4,1.7-5-0.6
		C295.4,280.6,295.6,279.9,296,279.3z M278.9,296.4c0.6-0.4,1.3-0.6,2.1-0.4c2.3,0.6,2.3,3.9,0.6,5c-1.8,0.9-4.7-0.7-4-3
		C277.8,297.2,278.3,296.7,278.9,296.4z M255.6,302.6c0.7-0.1,1.4,0.1,2,0.7c1.7,1.6,0.1,4.5-2,4.6c-2-0.1-3.7-3-2-4.6
		C254.2,302.7,255,302.6,255.6,302.6z M232.3,296.4c0.6,0.3,1.2,0.8,1.4,1.6c0.7,2.3-2.2,3.9-4,3c-1.7-1.1-1.7-4.4,0.6-5
		C231.1,295.8,231.8,296,232.3,296.4z M215.3,279.3c0.4,0.6,0.6,1.3,0.4,2.1c-0.6,2.3-3.9,2.3-5,0.6c-0.9-1.8,0.7-4.7,3-4
		C214.5,278.2,215,278.7,215.3,279.3z"/>
	<path class="st0" d="M146.2,256c-5.4,1.5-10.8,3.2-16.1,5c-0.8-1.6-1.6-3.3-2.2-5c0.7-1.7,1.4-3.4,2.2-5
		C135.4,252.8,140.8,254.5,146.2,256z M160.9,201.3c-5.5-1.4-11-2.6-16.4-3.7c0.1-1.8,0.3-3.6,0.6-5.5c1.4-1.2,2.9-2.2,4.4-3.2
		C153.1,193.1,156.9,197.3,160.9,201.3z M200.9,161.3c-4-3.9-8.2-7.7-12.4-11.4c1-1.5,2.1-3,3.2-4.4c1.8-0.3,3.7-0.5,5.5-0.6
		C198.3,150.3,199.5,155.8,200.9,161.3z M255.6,146.6c-1.5-5.4-3.2-10.8-5-16.1c1.6-0.8,3.3-1.6,5-2.2c1.7,0.7,3.4,1.4,5,2.2
		C258.9,135.8,257.2,141.2,255.6,146.6z M310.4,161.3c1.4-5.5,2.6-11,3.7-16.4c1.8,0.1,3.6,0.3,5.5,0.6c1.2,1.4,2.2,2.9,3.2,4.4
		C318.6,153.5,314.4,157.3,310.4,161.3z M350.4,201.3c3.9-4,7.7-8.2,11.4-12.4c1.5,1,3,2.1,4.4,3.2c0.3,1.8,0.5,3.7,0.6,5.5
		C361.4,198.7,355.9,199.9,350.4,201.3z M365.1,256c5.4-1.5,10.8-3.2,16.1-5c0.8,1.6,1.6,3.3,2.2,5c-0.7,1.7-1.4,3.4-2.2,5
		C375.9,259.3,370.5,257.6,365.1,256z M350.4,310.8c5.5,1.4,11,2.6,16.4,3.7c-0.1,1.8-0.3,3.6-0.6,5.5c-1.4,1.2-2.9,2.2-4.4,3.2
		C358.2,318.9,354.4,314.8,350.4,310.8z M310.4,350.8c4,3.9,8.2,7.7,12.4,11.4c-1,1.5-2.1,3-3.2,4.4c-1.8,0.3-3.7,0.5-5.5,0.6
		C313,361.8,311.8,356.3,310.4,350.8z M255.6,365.5c1.5,5.4,3.2,10.8,5,16.1c-1.6,0.8-3.3,1.6-5,2.2c-1.7-0.7-3.4-1.4-5-2.2
		C252.4,376.3,254.1,370.9,255.6,365.5z M200.9,350.8c-1.4,5.5-2.6,11-3.7,16.4c-1.8-0.1-3.6-0.3-5.5-0.6c-1.2-1.4-2.2-2.9-3.2-4.4
		C192.7,358.6,196.9,354.8,200.9,350.8z M160.9,310.8c-3.9,4-7.7,8.2-11.4,12.4c-1.5-1-3-2.1-4.4-3.2c-0.3-1.8-0.5-3.7-0.6-5.5
		C149.9,313.4,155.4,312.2,160.9,310.8z M185.5,256c-0.7,2.1-1.3,4.3-1.8,6.4c-14,1.3-27.1,5.3-39.2,11.4c-5.3-1.2-9.3-4.7-12.4-9.3
		c10.2-3.4,20.7-6.5,31.4-8.5c-10.7-2-21.2-5.1-31.4-8.5c3-4.6,7-8.2,12.4-9.3c12.1,6.1,25.2,10.2,39.2,11.4
		C184.2,251.8,184.8,253.9,185.5,256z M194.9,221c-1.6,1.5-3.2,3-4.8,4.6c-12.8-5.9-26.1-9-39.6-9.7c-4-3.7-5.7-8.7-6.1-14.2
		c10.6,2.1,21.2,4.7,31.5,8.3c-8.2-7.1-15.8-15-22.9-23.1c4.9-2.5,10.2-3.5,15.4-1.9c7.4,11.4,16.7,21.4,28.2,29.5
		C195.9,216.7,195.4,218.8,194.9,221z M220.6,195.3c-2.2,0.5-4.3,1-6.5,1.6c-8.1-11.5-18.1-20.8-29.5-28.2
		c-1.7-5.2-0.6-10.4,1.9-15.4c8.1,7.1,16,14.7,23.1,22.9c-3.6-10.2-6.2-20.9-8.3-31.5c5.5,0.3,10.6,2,14.2,6.1
		c0.7,13.5,3.8,26.9,9.7,39.6C223.6,192.1,222.1,193.7,220.6,195.3z M255.6,185.9c-2.1-0.7-4.3-1.3-6.4-1.8
		c-1.3-14-5.3-27.1-11.4-39.2c1.2-5.3,4.7-9.3,9.3-12.4c3.4,10.2,6.5,20.7,8.5,31.4c2-10.7,5.1-21.2,8.5-31.4c4.6,3,8.2,7,9.3,12.4
		c-6.1,12.1-10.2,25.2-11.4,39.2C259.9,184.6,257.8,185.2,255.6,185.9z M290.7,195.3c-1.5-1.6-3-3.2-4.6-4.8
		c5.9-12.8,9-26.1,9.7-39.6c3.7-4,8.7-5.7,14.2-6.1c-2.1,10.6-4.7,21.2-8.3,31.5c7.1-8.2,15-15.8,23.1-22.9
		c2.5,4.9,3.5,10.2,1.9,15.4c-11.4,7.4-21.4,16.7-29.5,28.2C295,196.3,292.9,195.8,290.7,195.3z M316.4,221c-0.5-2.2-1-4.3-1.6-6.5
		c11.5-8.1,20.8-18.1,28.2-29.5c5.2-1.7,10.4-0.6,15.4,1.9c-7.1,8.1-14.7,16-22.9,23.1c10.2-3.6,20.9-6.2,31.5-8.3
		c-0.3,5.5-2,10.6-6.1,14.2c-13.5,0.7-26.9,3.8-39.6,9.7C319.6,224,318,222.5,316.4,221z M325.8,256c0.7-2.1,1.3-4.3,1.8-6.4
		c14-1.3,27.1-5.3,39.2-11.4c5.3,1.2,9.3,4.7,12.4,9.3c-10.2,3.4-20.7,6.5-31.4,8.5c10.7,2,21.2,5.1,31.4,8.5c-3,4.6-7,8.2-12.4,9.3
		c-12.1-6.1-25.2-10.2-39.2-11.4C327,260.3,326.4,258.2,325.8,256z M316.4,291.1c1.6-1.5,3.2-3,4.8-4.6c12.8,5.9,26.1,9,39.6,9.7
		c4,3.7,5.7,8.7,6.1,14.2c-10.6-2.1-21.2-4.7-31.5-8.3c8.2,7.1,15.8,15,22.9,23.1c-4.9,2.5-10.2,3.5-15.4,1.9
		c-7.4-11.4-16.7-21.4-28.2-29.5C315.4,295.4,315.9,293.3,316.4,291.1z M290.7,316.8c2.2-0.5,4.3-1,6.5-1.6
		c8.1,11.5,18.1,20.8,29.5,28.2c1.7,5.2,0.6,10.4-1.9,15.4c-8.1-7.1-16-14.7-23.1-22.9c3.6,10.2,6.2,20.9,8.3,31.5
		c-5.5-0.3-10.6-2-14.2-6.1c-0.7-13.5-3.8-26.9-9.7-39.6C287.7,320,289.2,318.4,290.7,316.8z M255.6,326.2c2.1,0.7,4.3,1.3,6.4,1.8
		c1.3,14,5.3,27.1,11.4,39.2c-1.2,5.3-4.7,9.3-9.3,12.4c-3.4-10.2-6.5-20.7-8.5-31.4c-2,10.7-5.1,21.2-8.5,31.4
		c-4.6-3-8.2-7-9.3-12.4c6.1-12.1,10.2-25.2,11.4-39.2C251.4,327.4,253.5,326.8,255.6,326.2z M220.6,316.8c1.5,1.6,3,3.2,4.6,4.8
		c-5.9,12.8-9,26.1-9.7,39.6c-3.7,4-8.7,5.7-14.2,6.1c2.1-10.6,4.7-21.2,8.3-31.5c-7.1,8.2-15,15.8-23.1,22.9
		c-2.5-4.9-3.5-10.2-1.9-15.4c11.4-7.4,21.4-16.7,29.5-28.2C216.3,315.7,218.4,316.3,220.6,316.8z M194.9,291.1
		c0.5,2.2,1,4.3,1.6,6.5c-11.5,8.1-20.8,18.1-28.2,29.5c-5.2,1.7-10.4,0.6-15.4-1.9c7.1-8.1,14.7-16,22.9-23.1
		c-10.2,3.6-20.9,6.2-31.5,8.3c0.3-5.5,2-10.6,6.1-14.2c13.5-0.7,26.9-3.8,39.6-9.7C191.7,288.1,193.3,289.6,194.9,291.1z
		 M222.8,264.8c0.2-0.5,0.5-1,0.8-1.6c0.5,0.3,0.9,0.6,1.4,1c-0.2,0.5-0.5,1-0.7,1.6C223.8,265.5,223.3,265.2,222.8,264.8z
		 M222.8,247.2c0.5-0.3,1-0.7,1.4-1c0.3,0.5,0.5,1,0.7,1.6c-0.5,0.3-0.9,0.7-1.4,1C223.3,248.3,223.1,247.8,222.8,247.2z M231.6,232
		c0.6-0.1,1.2-0.1,1.7-0.1c0,0.6-0.1,1.1-0.1,1.7c-0.6,0.1-1.1,0.1-1.7,0.1C231.5,233.2,231.6,232.6,231.6,232z M246.8,223.2
		c0.5,0.2,1,0.5,1.6,0.8c-0.3,0.5-0.6,0.9-1,1.4c-0.5-0.2-1-0.5-1.6-0.7C246.2,224.2,246.5,223.7,246.8,223.2z M264.4,223.2
		c0.3,0.5,0.7,1,1,1.4c-0.5,0.3-1,0.5-1.6,0.7c-0.3-0.5-0.7-0.9-1-1.4C263.4,223.7,263.9,223.5,264.4,223.2z M279.7,232
		c0.1,0.6,0.1,1.2,0.1,1.7c-0.6,0-1.1-0.1-1.7-0.1c-0.1-0.6-0.1-1.1-0.1-1.7C278.5,231.9,279.1,232,279.7,232z M288.5,247.2
		c-0.2,0.5-0.5,1-0.8,1.6c-0.5-0.3-0.9-0.6-1.4-1c0.2-0.5,0.5-1,0.7-1.6C287.5,246.6,288,246.9,288.5,247.2z M288.5,264.8
		c-0.5,0.3-1,0.7-1.4,1c-0.3-0.5-0.5-1-0.7-1.6c0.5-0.3,0.9-0.7,1.4-1C288,263.8,288.2,264.3,288.5,264.8z M279.7,280.1
		c-0.6,0.1-1.2,0.1-1.7,0.1c0-0.6,0.1-1.1,0.1-1.7c0.6-0.1,1.1-0.1,1.7-0.1C279.8,278.9,279.7,279.5,279.7,280.1z M264.4,288.9
		c-0.5-0.2-1-0.5-1.6-0.8c0.3-0.5,0.6-0.9,1-1.4c0.5,0.2,1,0.5,1.6,0.7C265.1,287.9,264.8,288.4,264.4,288.9z M246.8,288.9
		c-0.3-0.5-0.7-1-1-1.4c0.5-0.3,1-0.5,1.6-0.7c0.3,0.5,0.7,0.9,1,1.4C247.9,288.4,247.4,288.6,246.8,288.9z M231.6,280.1
		c-0.1-0.6-0.1-1.2-0.1-1.7c0.6,0,1.1,0.1,1.7,0.1c0.1,0.6,0.1,1.1,0.1,1.7C232.8,280.2,232.2,280.1,231.6,280.1z M253.2,256.7
		c-0.2-0.2-0.3-0.4-0.5-0.6c0.2-0.2,0.3-0.4,0.5-0.6c0-0.3-0.1-0.5-0.1-0.8c0.3-0.1,0.5-0.2,0.8-0.3c0.1-0.3,0.2-0.5,0.3-0.8
		c0.3,0,0.5,0.1,0.8,0.1c0.2-0.2,0.4-0.3,0.6-0.5c0.2,0.2,0.4,0.3,0.6,0.5c0.3,0,0.5-0.1,0.8-0.1c0.1,0.3,0.2,0.5,0.3,0.8
		c0.3,0.1,0.5,0.2,0.8,0.3c0,0.3-0.1,0.5-0.1,0.8c0.2,0.2,0.3,0.4,0.5,0.6c-0.2,0.2-0.3,0.4-0.5,0.6c0,0.3,0.1,0.5,0.1,0.8
		c-0.3,0.1-0.5,0.2-0.8,0.3c-0.1,0.3-0.2,0.5-0.3,0.8c-0.3,0-0.5-0.1-0.8-0.1c-0.2,0.2-0.4,0.3-0.6,0.5c-0.2-0.2-0.4-0.3-0.6-0.5
		c-0.3,0-0.5,0.1-0.8,0.1c-0.1-0.3-0.2-0.5-0.3-0.8c-0.3-0.1-0.5-0.2-0.8-0.3C253.1,257.2,253.2,257,253.2,256.7z M135.6,288.2
		c13.9-9.4,29.4-15.9,46.5-17.9c-0.3,1.9-0.6,3.8-0.8,5.7c1.1,1.5,2.3,3,3.5,4.5C169,287.3,152.3,289.4,135.6,288.2z M135.6,223.9
		c16.7-1.2,33.4,0.9,49.2,7.7c-1.2,1.5-2.4,3-3.5,4.5c0.2,1.9,0.5,3.8,0.8,5.7C165,239.8,149.5,233.3,135.6,223.9z M167.8,168.2
		c15.1,7.3,28.5,17.5,38.7,31.3c-1.8,0.7-3.5,1.4-5.3,2.1c-0.8,1.7-1.5,3.5-2.1,5.3C185.3,196.7,175.1,183.3,167.8,168.2z
		 M223.5,136c9.4,13.9,15.9,29.4,17.9,46.5c-1.9-0.3-3.8-0.6-5.7-0.8c-1.5,1.1-3,2.3-4.5,3.5C224.4,169.4,222.3,152.7,223.5,136z
		 M287.8,136c1.2,16.7-0.9,33.4-7.7,49.2c-1.5-1.2-3-2.4-4.5-3.5c-1.9,0.2-3.8,0.5-5.7,0.8C271.9,165.4,278.4,149.9,287.8,136z
		 M343.5,168.2c-7.3,15.1-17.5,28.5-31.3,38.7c-0.7-1.8-1.4-3.5-2.1-5.3c-1.7-0.8-3.5-1.5-5.3-2.1
		C315,185.7,328.4,175.5,343.5,168.2z M375.7,223.9c-13.9,9.4-29.4,15.9-46.5,17.9c0.3-1.9,0.6-3.8,0.8-5.7c-1.1-1.5-2.3-3-3.5-4.5
		C342.2,224.8,358.9,222.6,375.7,223.9z M375.7,288.2c-16.7,1.2-33.4-0.9-49.2-7.7c1.2-1.5,2.4-3,3.5-4.5c-0.2-1.9-0.5-3.8-0.8-5.7
		C346.3,272.3,361.8,278.8,375.7,288.2z M343.5,343.9c-15.1-7.3-28.5-17.5-38.7-31.3c1.8-0.7,3.5-1.4,5.3-2.1
		c0.8-1.7,1.5-3.5,2.1-5.3C326,315.4,336.2,328.8,343.5,343.9z M287.8,376.1c-9.4-13.9-15.9-29.4-17.9-46.5c1.9,0.3,3.8,0.6,5.7,0.8
		c1.5-1.1,3-2.3,4.5-3.5C286.9,342.6,289,359.3,287.8,376.1z M223.5,376.1c-1.2-16.7,0.9-33.4,7.7-49.2c1.5,1.2,3,2.4,4.5,3.5
		c1.9-0.2,3.8-0.5,5.7-0.8C239.4,346.7,232.9,362.2,223.5,376.1z M167.8,343.9c7.3-15.1,17.5-28.5,31.3-38.7
		c0.7,1.8,1.4,3.5,2.1,5.3c1.7,0.8,3.5,1.5,5.3,2.1C196.3,326.4,182.9,336.6,167.8,343.9z M185.1,274.9c0.2-1.7,0.5-3.3,0.8-5
		c0,0,0.1,0,0.1,0C185.6,271.6,185.4,273.3,185.1,274.9c1.1,1.3,2.1,2.6,3.2,3.9c0,0,0,0-0.1,0C187.2,277.6,186.1,276.3,185.1,274.9
		z M185.1,237.1c1-1.3,2.1-2.7,3.2-4c0,0,0,0,0.1,0C187.2,234.5,186.2,235.8,185.1,237.1c0.3,1.7,0.5,3.4,0.8,5c0,0-0.1,0-0.1,0
		C185.5,240.5,185.3,238.8,185.1,237.1z M204,204.4c1.6-0.7,3.1-1.3,4.7-1.8c0,0,0,0,0,0.1C207.2,203.2,205.6,203.8,204,204.4
		c-0.6,1.6-1.2,3.2-1.8,4.8c0,0,0,0-0.1,0C202.7,207.5,203.3,205.9,204,204.4z M236.7,185.5c1.7,0.2,3.3,0.5,5,0.8c0,0,0,0.1,0,0.1
		C240.1,186,238.4,185.8,236.7,185.5c-1.3,1.1-2.6,2.1-3.9,3.2c0,0,0,0,0-0.1C234.1,187.5,235.4,186.5,236.7,185.5z M274.6,185.5
		c1.3,1,2.7,2.1,4,3.2c0,0,0,0,0,0.1C277.2,187.6,275.9,186.6,274.6,185.5c-1.7,0.3-3.4,0.5-5,0.8c0,0,0-0.1,0-0.1
		C271.2,185.9,272.9,185.7,274.6,185.5z M307.3,204.4c0.7,1.6,1.3,3.1,1.8,4.7c0,0,0,0-0.1,0C308.5,207.6,307.9,206,307.3,204.4
		c-1.6-0.6-3.2-1.2-4.8-1.8c0,0,0,0,0-0.1C304.2,203.1,305.7,203.7,307.3,204.4z M326.2,237.1c-0.2,1.7-0.5,3.3-0.8,5
		c0,0-0.1,0-0.1,0C325.7,240.5,325.9,238.8,326.2,237.1c-1.1-1.3-2.1-2.6-3.2-3.9c0,0,0,0,0.1,0
		C324.1,234.5,325.2,235.8,326.2,237.1z M326.2,274.9c-1,1.3-2.1,2.7-3.2,4c0,0,0,0-0.1,0C324.1,277.6,325.1,276.3,326.2,274.9
		c-0.3-1.7-0.5-3.4-0.8-5c0,0,0.1,0,0.1,0C325.7,271.6,326,273.3,326.2,274.9z M307.3,307.7c-1.6,0.7-3.1,1.3-4.7,1.8c0,0,0,0,0-0.1
		C304.1,308.9,305.7,308.3,307.3,307.7c0.6-1.6,1.2-3.2,1.8-4.8c0,0,0,0,0.1,0C308.6,304.6,308,306.1,307.3,307.7z M274.6,326.6
		c-1.7-0.2-3.3-0.5-5-0.8c0,0,0-0.1,0-0.1C271.2,326.1,272.9,326.3,274.6,326.6c1.3-1.1,2.6-2.1,3.9-3.2c0,0,0,0,0,0.1
		C277.2,324.5,275.9,325.6,274.6,326.6z M236.7,326.6c-1.3-1-2.7-2.1-4-3.2c0,0,0,0,0-0.1C234.1,324.5,235.4,325.5,236.7,326.6
		c1.7-0.3,3.4-0.5,5-0.8c0,0,0,0.1,0,0.1C240.1,326.1,238.4,326.4,236.7,326.6z M204,307.7c-0.7-1.6-1.3-3.1-1.8-4.7c0,0,0,0,0.1,0
		C202.8,304.5,203.4,306.1,204,307.7c1.6,0.6,3.2,1.2,4.8,1.8c0,0,0,0,0,0.1C207.1,309,205.5,308.4,204,307.7z M189.5,256
		c-0.7,2.1-1.4,4.2-1.9,6.4c0,0,0,0-0.1,0C188.1,260.3,188.7,258.1,189.5,256c-0.8-2.1-1.4-4.2-2-6.4c0,0,0,0,0.1,0
		C188.1,251.8,188.8,253.9,189.5,256z M198.4,223c-1.7,1.5-3.3,3-4.9,4.6c0,0,0,0,0-0.1C195,225.9,196.6,224.4,198.4,223
		c0.4-2.2,0.9-4.4,1.4-6.5c0,0,0,0,0.1,0C199.3,218.6,198.8,220.8,198.4,223z M222.6,198.8c-2.2,0.4-4.3,0.9-6.5,1.5c0,0,0,0,0-0.1
		C218.2,199.6,220.4,199.1,222.6,198.8c1.4-1.7,2.9-3.3,4.5-4.9c0,0,0,0,0.1,0C225.6,195.5,224,197.1,222.6,198.8z M255.6,189.9
		c-2.1-0.7-4.2-1.4-6.4-1.9c0,0,0,0,0-0.1C251.4,188.5,253.5,189.1,255.6,189.9c2.1-0.8,4.2-1.4,6.4-2c0,0,0,0,0,0.1
		C259.9,188.5,257.7,189.2,255.6,189.9z M288.7,198.8c-1.5-1.7-3-3.3-4.6-4.9c0,0,0,0,0.1,0C285.8,195.4,287.3,197,288.7,198.8
		c2.2,0.4,4.4,0.9,6.5,1.4c0,0,0,0,0,0.1C293.1,199.7,290.9,199.2,288.7,198.8z M312.9,223c-0.4-2.2-0.9-4.3-1.5-6.5c0,0,0,0,0.1,0
		C312,218.6,312.5,220.8,312.9,223c1.7,1.4,3.3,2.9,4.9,4.5c0,0,0,0,0,0.1C316.2,226,314.6,224.4,312.9,223z M321.8,256
		c0.7-2.1,1.4-4.2,1.9-6.4c0,0,0,0,0.1,0C323.2,251.8,322.6,253.9,321.8,256c0.8,2.1,1.4,4.2,2,6.4c0,0,0,0-0.1,0
		C323.1,260.3,322.5,258.1,321.8,256z M312.9,289.1c1.7-1.5,3.3-3,4.9-4.6c0,0,0,0,0,0.1C316.3,286.2,314.6,287.7,312.9,289.1
		c-0.4,2.2-0.9,4.4-1.4,6.5c0,0,0,0-0.1,0C312,293.5,312.5,291.3,312.9,289.1z M288.7,313.3c2.2-0.4,4.3-0.9,6.5-1.5c0,0,0,0,0,0.1
		C293.1,312.4,290.9,312.9,288.7,313.3c-1.4,1.7-2.9,3.3-4.5,4.9c0,0,0,0-0.1,0C285.7,316.6,287.3,315,288.7,313.3z M255.6,322.2
		c2.1,0.7,4.2,1.4,6.4,1.9c0,0,0,0,0,0.1C259.9,323.6,257.7,322.9,255.6,322.2c-2.1,0.8-4.2,1.4-6.4,2c0,0,0,0,0-0.1
		C251.4,323.5,253.5,322.9,255.6,322.2z M222.6,313.3c1.5,1.7,3,3.3,4.6,4.9c0,0,0,0-0.1,0C225.5,316.7,224,315,222.6,313.3
		c-2.2-0.4-4.4-0.9-6.5-1.4c0,0,0,0,0-0.1C218.2,312.4,220.4,312.9,222.6,313.3z M198.4,289.1c0.4,2.2,0.9,4.3,1.5,6.5
		c0,0,0,0-0.1,0C199.2,293.5,198.7,291.3,198.4,289.1c-1.7-1.4-3.3-2.9-4.9-4.5c0,0,0,0,0-0.1C195.1,286.1,196.7,287.6,198.4,289.1z
		 M219.8,256c-2.3,3.5-4.1,7.3-5.6,11.1c3.2,2.6,6.7,4.9,10.4,6.8c-0.2,4.2,0.1,8.4,0.7,12.4c4.1,0.7,8.2,0.9,12.4,0.7
		c1.9,3.7,4.2,7.2,6.8,10.4c3.9-1.5,7.6-3.3,11.1-5.6c3.5,2.3,7.3,4.1,11.1,5.6c2.6-3.2,4.9-6.7,6.8-10.4c4.2,0.2,8.4-0.1,12.4-0.7
		c0.7-4.1,0.9-8.2,0.7-12.4c3.7-1.9,7.2-4.2,10.4-6.8c-1.5-3.9-3.3-7.6-5.6-11.1c2.3-3.5,4.1-7.3,5.6-11.1
		c-3.2-2.6-6.7-4.9-10.4-6.8c0.2-4.2-0.1-8.4-0.7-12.4c-4.1-0.6-8.2-0.9-12.4-0.7c-1.9-3.7-4.2-7.2-6.8-10.4
		c-3.9,1.5-7.6,3.3-11.1,5.6c-3.5-2.3-7.3-4.1-11.1-5.6c-2.6,3.2-4.9,6.7-6.8,10.4c-4.2-0.2-8.4,0.1-12.4,0.7
		c-0.6,4.1-0.9,8.2-0.7,12.4c-3.7,1.9-7.2,4.2-10.4,6.8C215.6,248.8,217.5,252.5,219.8,256z M189,273.9c0.9-6.1,2.4-12.1,4.5-17.9
		c-2.2-5.8-3.6-11.8-4.5-17.9c3.8-4.8,8.1-9.3,12.9-13.2c1-6.1,2.7-12,5-17.7c5.7-2.3,11.6-4,17.7-5c3.9-4.8,8.4-9.1,13.2-12.9
		c6.1,0.9,12.1,2.4,17.9,4.5c5.8-2.2,11.8-3.6,17.9-4.5c4.8,3.8,9.3,8.1,13.2,12.9c6.1,1,12,2.7,17.7,5c2.3,5.7,4,11.6,5,17.7
		c4.8,3.9,9.1,8.4,12.9,13.2c-0.9,6.1-2.4,12.1-4.5,17.9c2.2,5.8,3.6,11.8,4.5,17.9c-3.8,4.8-8.1,9.3-12.9,13.2
		c-1,6.1-2.7,12-5,17.7c-5.7,2.3-11.6,4-17.7,5c-3.9,4.8-8.4,9.1-13.2,12.9c-6.1-0.9-12.1-2.4-17.9-4.5c-5.8,2.2-11.8,3.6-17.9,4.5
		c-4.8-3.8-9.3-8.1-13.2-12.9c-6.1-1-12-2.7-17.7-5c-2.3-5.7-4-11.6-5-17.7C197.1,283.2,192.8,278.7,189,273.9z M243,259.4
		c-1.1-1.2-2.3-2.3-3.5-3.4c1.2-1.1,2.4-2.2,3.5-3.4c-0.4-1.6-0.8-3.1-1.3-4.7c1.6-0.3,3.1-0.7,4.7-1.2c0.5-1.5,0.9-3.1,1.2-4.7
		c1.5,0.5,3.1,0.9,4.7,1.3c1.2-1.1,2.3-2.3,3.4-3.5c1.1,1.2,2.2,2.4,3.4,3.5c1.6-0.4,3.1-0.8,4.7-1.3c0.3,1.6,0.8,3.1,1.2,4.7
		c1.5,0.5,3.1,0.9,4.7,1.2c-0.5,1.5-0.9,3.1-1.3,4.7c1.1,1.2,2.3,2.3,3.5,3.4c-1.2,1.1-2.4,2.2-3.5,3.4c0.4,1.6,0.8,3.1,1.3,4.7
		c-1.6,0.3-3.1,0.7-4.7,1.2c-0.5,1.5-0.9,3.1-1.2,4.7c-1.5-0.5-3.1-0.9-4.7-1.3c-1.2,1.1-2.3,2.3-3.4,3.5c-1.1-1.2-2.2-2.4-3.4-3.5
		c-1.6,0.4-3.1,0.8-4.7,1.3c-0.3-1.6-0.7-3.1-1.2-4.7c-1.5-0.5-3.1-0.9-4.7-1.2C242.2,262.6,242.6,261,243,259.4z M247.6,256
		c0.5,0.6,1,1.2,1.5,1.8c-0.1,0.8-0.3,1.5-0.4,2.3c0.7,0.3,1.5,0.5,2.2,0.8c0.3,0.7,0.5,1.4,0.8,2.2c0.8-0.1,1.5-0.3,2.3-0.4
		c0.6,0.5,1.2,1,1.8,1.5c0.6-0.5,1.2-1,1.8-1.5c0.8,0.1,1.5,0.3,2.3,0.4c0.3-0.7,0.5-1.5,0.8-2.2c0.7-0.3,1.4-0.5,2.2-0.8
		c-0.1-0.8-0.3-1.5-0.4-2.3c0.5-0.6,1-1.2,1.5-1.8c-0.5-0.6-1-1.2-1.5-1.8c0.1-0.8,0.3-1.5,0.4-2.3c-0.7-0.3-1.5-0.5-2.2-0.8
		c-0.3-0.7-0.5-1.4-0.8-2.2c-0.8,0.1-1.5,0.3-2.3,0.4c-0.6-0.5-1.2-1-1.8-1.5c-0.6,0.5-1.2,1-1.8,1.5c-0.8-0.1-1.5-0.3-2.3-0.4
		c-0.3,0.7-0.5,1.5-0.8,2.2c-0.7,0.3-1.4,0.5-2.2,0.8c0.1,0.8,0.3,1.5,0.4,2.3C248.6,254.9,248.1,255.5,247.6,256z M229.9,262.9
		c-1.4-1.1-2.9-2.2-4.4-3.2c0.8-1.3,1.6-2.5,2.4-3.7c-0.9-1.2-1.7-2.4-2.4-3.7c1.5-1,3-2.1,4.4-3.2c-0.7-1.7-1.4-3.3-2.2-5
		c1.3-0.7,2.6-1.4,4-2c-0.1-1.5-0.2-2.9-0.2-4.4c1.8-0.1,3.6-0.3,5.4-0.6c0.3-1.8,0.5-3.6,0.6-5.4c1.5,0,3,0.1,4.4,0.2
		c0.6-1.3,1.3-2.7,2-4c1.6,0.8,3.3,1.5,5,2.2c1.1-1.4,2.2-2.9,3.2-4.4c1.3,0.8,2.5,1.6,3.7,2.4c1.2-0.9,2.4-1.7,3.7-2.4
		c1,1.5,2.1,3,3.2,4.4c1.7-0.7,3.3-1.4,5-2.2c0.7,1.3,1.4,2.6,2,4c1.5-0.1,2.9-0.2,4.4-0.2c0.1,1.8,0.3,3.6,0.6,5.4
		c1.8,0.3,3.6,0.5,5.4,0.6c0,1.5-0.1,3-0.2,4.4c1.3,0.6,2.7,1.3,4,2c-0.8,1.6-1.5,3.3-2.2,5c1.4,1.1,2.9,2.2,4.4,3.2
		c-0.8,1.3-1.6,2.5-2.4,3.7c0.9,1.2,1.7,2.4,2.4,3.7c-1.5,1-3,2.1-4.4,3.2c0.7,1.7,1.4,3.3,2.2,5c-1.3,0.7-2.6,1.4-4,2
		c0.1,1.5,0.2,2.9,0.2,4.4c-1.8,0.1-3.6,0.3-5.4,0.6c-0.3,1.8-0.5,3.6-0.6,5.4c-1.5,0-3-0.1-4.4-0.2c-0.6,1.3-1.3,2.7-2,4
		c-1.6-0.8-3.3-1.5-5-2.2c-1.1,1.4-2.2,2.9-3.2,4.4c-1.3-0.8-2.5-1.6-3.7-2.4c-1.2,0.9-2.4,1.7-3.7,2.4c-1-1.5-2.1-3-3.2-4.4
		c-1.7,0.7-3.3,1.4-5,2.2c-0.7-1.3-1.4-2.6-2-4c-1.5,0.1-2.9,0.2-4.4,0.2c-0.1-1.8-0.3-3.6-0.6-5.4c-1.8-0.3-3.6-0.5-5.4-0.6
		c0-1.5,0.1-3,0.2-4.4c-1.3-0.6-2.7-1.3-4-2C228.5,266.3,229.2,264.6,229.9,262.9z M233.4,256c1.8,1.4,3.5,3,5.2,4.6
		c-0.6,2.2-1.3,4.4-2.2,6.5c2.3,0.3,4.5,0.8,6.8,1.4c0.6,2.2,1,4.5,1.4,6.8c2.2-0.8,4.3-1.6,6.5-2.2c1.6,1.6,3.1,3.4,4.6,5.2
		c1.4-1.8,3-3.5,4.6-5.2c2.2,0.6,4.4,1.3,6.5,2.2c0.3-2.3,0.8-4.5,1.4-6.8c2.2-0.6,4.5-1,6.8-1.4c-0.8-2.2-1.6-4.3-2.2-6.5
		c1.6-1.6,3.4-3.1,5.2-4.6c-1.8-1.4-3.5-3-5.2-4.6c0.6-2.2,1.3-4.4,2.2-6.5c-2.3-0.3-4.5-0.8-6.8-1.4c-0.6-2.2-1-4.5-1.4-6.8
		c-2.2,0.8-4.3,1.6-6.5,2.2c-1.6-1.6-3.1-3.4-4.6-5.2c-1.4,1.8-3,3.5-4.6,5.2c-2.2-0.6-4.4-1.3-6.5-2.2c-0.3,2.3-0.8,4.5-1.4,6.8
		c-2.2,0.6-4.5,1-6.8,1.4c0.8,2.2,1.6,4.3,2.2,6.5C236.9,253.1,235.2,254.6,233.4,256z M121.1,256c3.1,8.6,7.2,16.7,12.6,24.1
		c-6.1,3.9-11.9,8.4-17.4,13.3c7.2,1.5,14.5,2.4,21.7,2.8c-1,9.1-0.5,18.2,1.2,27.1c7,5.9,14.6,10.9,22.9,14.6
		c-3.3,6.4-6.1,13.2-8.4,20.2c7-2.3,13.8-5.1,20.2-8.4c3.7,8.4,8.7,16,14.6,22.9c9,1.6,18.1,2.1,27.1,1.2c0.3,7.2,1.3,14.5,2.8,21.7
		c4.9-5.5,9.3-11.3,13.3-17.4c7.4,5.4,15.5,9.5,24.1,12.6c8.6-3.1,16.7-7.2,24.1-12.6c3.9,6.1,8.4,11.9,13.3,17.4
		c1.5-7.2,2.4-14.5,2.8-21.7c9.1,1,18.2,0.5,27.1-1.2c5.9-7,10.9-14.6,14.6-22.9c6.4,3.3,13.2,6.1,20.2,8.4
		c-2.3-7-5.1-13.8-8.4-20.2c8.4-3.7,16-8.7,22.9-14.6c1.6-9,2.1-18.1,1.2-27.1c7.2-0.3,14.5-1.3,21.7-2.8
		c-5.5-4.9-11.3-9.3-17.4-13.3c5.4-7.4,9.5-15.5,12.6-24.1c-3.1-8.6-7.2-16.7-12.6-24.1c6.1-3.9,11.9-8.4,17.4-13.3
		c-7.2-1.5-14.5-2.4-21.7-2.8c1-9.1,0.5-18.2-1.2-27.1c-7-5.9-14.6-10.9-22.9-14.6c3.3-6.4,6.1-13.2,8.4-20.2
		c-7,2.3-13.8,5.1-20.2,8.4c-3.7-8.4-8.7-16-14.6-22.9c-9-1.6-18.1-2.1-27.1-1.2c-0.3-7.2-1.3-14.5-2.8-21.7
		c-4.9,5.5-9.3,11.3-13.3,17.4c-7.4-5.4-15.5-9.5-24.1-12.6c-8.6,3.1-16.7,7.2-24.1,12.6c-3.9-6.1-8.4-11.9-13.3-17.4
		c-1.5,7.2-2.4,14.5-2.8,21.7c-9.1-1-18.2-0.5-27.1,1.2c-5.9,7-10.9,14.6-14.6,22.9c-6.4-3.3-13.2-6.1-20.2-8.4
		c2.3,7,5.1,13.8,8.4,20.2c-8.4,3.7-16,8.7-22.9,14.6c-1.6,9-2.1,18.1-1.2,27.1c-7.2,0.3-14.5,1.3-21.7,2.8
		c5.5,4.9,11.3,9.3,17.4,13.3C128.3,239.3,124.2,247.5,121.1,256z"/>
</g>
<g>
	<path class="st1" d="M49.5,398.4h412.3c6.5,0,11.3-6.2,9.5-12.5L457.2,335c-1.2-4.3-5.1-7.2-9.5-7.2H65.3c-4.3,0-8.1,2.8-9.4,6.9
		L40,385.6C38.1,391.9,42.8,398.4,49.5,398.4z"/>
	<g>
		<path class="st1" d="M148.7,235.1c0,0-13.4-2.3-16-14.7c-2.2-10.1,2-26.6,16.5-29.8c16.3-3.7,18.3,8.7,35,1.8
			c14.2-5.9,0.8-22.3,5.1-31.6c4.7-10,45.8-4.2,36.3,27.2C215.4,221.7,180.7,241.3,148.7,235.1z"/>
		<g>
			<path class="st2" d="M259.2,245.8l72.9-55.9l-57.9-67.7l-90.1,110l13.8,11.9C215.4,259,240.9,259.8,259.2,245.8z"/>
			<path class="st3" d="M287.9,115.1L287.9,115.1c-26,7.2-36.1,38.6-19.3,59.7l140.2,175.9H432l-99.7-215.2
				C324.4,118.8,305.7,110.1,287.9,115.1z"/>
			<path class="st4" d="M408.8,350.7l-43.4,15c-3.2,1.1-2.4,5.9,1,5.9h63.3c2.7,0,5.1-1.9,5.6-4.6c0.8-4.1,0.9-10.3-3.3-16.3H408.8z
				"/>
			<g>
				
					<rect x="185.9" y="198.9" transform="matrix(0.2255 0.9742 -0.9742 0.2255 368.3257 -18.0668)" class="st5" width="19.3" height="47.4"/>
				<path class="st4" d="M177.6,223l-2.8-2.2l-2.7-5.3c-1.8-3.6-7.4-3.4-8.4,0.5c-0.1,0.5-0.2,1.1-0.1,1.7l0.4,3.5
					c-5.7,12.2-17.9,11.7-17.9,11.7l10.7,9.4l3.1,8.3c0.2,0.6,1,0.7,1.5,0.1l2.3-2.8l8.5,4.3c2.3,1.1,5,0.6,6.6-1.4
					C183,245.6,188.8,234.9,177.6,223z"/>
			</g>
			<path class="st4" d="M122.1,356L122.1,356c1.2,7.7-4.1,14-11.9,14H70.4c-1.5,0-1.9-2-0.6-2.6l18.3-8.8c2.1-1,4.4-1.6,6.8-1.8
				l9.5-0.8H122.1z"/>
			<path class="st4" d="M226.9,238.7L122.1,356h-17.7l91-141.3c6.2-9.6,19.1-12,28.4-5.3v0C233.3,216.3,234.8,229.9,226.9,238.7z"/>
		</g>
	</g>
</g>
</svg>
