<?xml version="1.0" encoding="utf-8"?>
<!-- Generator: Adobe Illustrator 21.0.0, SVG Export Plug-In . SVG Version: 6.00 Build 0)  -->
<svg version="1.1" id="Layer_1" xmlns="http://www.w3.org/2000/svg" xmlns:xlink="http://www.w3.org/1999/xlink" x="0px" y="0px"
	 viewBox="0 0 415.9 337.6" style="enable-background:new 0 0 415.9 337.6;" xml:space="preserve">
<style type="text/css">
	.st0{fill:#A8A8A8;}
	.st1{fill:#E6C2FF;}
	.st2{fill:#926BB8;}
	.st3{fill:#FFCFC5;}
	.st4{fill:none;stroke:#FFABA4;stroke-width:0.75;stroke-linecap:round;stroke-linejoin:round;stroke-miterlimit:10;}
	.st5{fill:none;stroke:#C995DD;stroke-linecap:round;stroke-miterlimit:10;}
	.st6{fill:#FFEDD1;}
	.st7{fill:#FFA899;}
</style>
<g>
	<path class="st0" d="M186.9,168.8c0,1.8,0.5,3.6,1.3,5.3c0.1,1.9,0.6,3.7,1.5,5.2c0.9,1.6,2.2,2.9,3.8,3.9c1,1.6,2.4,2.9,3.9,3.8
		c1.6,0.9,3.4,1.4,5.2,1.5c1.7,0.8,3.5,1.3,5.3,1.3c1.8,0,3.6-0.5,5.3-1.3c1.9-0.1,3.7-0.6,5.2-1.5c1.6-0.9,2.9-2.2,3.9-3.8
		c1.6-1,2.9-2.4,3.8-3.9c0.9-1.6,1.4-3.4,1.5-5.2c0.8-1.7,1.3-3.5,1.3-5.3c0-1.8-0.5-3.6-1.3-5.3c-0.1-1.9-0.6-3.7-1.5-5.2
		c-0.9-1.6-2.2-2.9-3.8-3.9c-1-1.6-2.4-2.9-3.9-3.8c-1.6-0.9-3.4-1.4-5.2-1.5c-1.7-0.8-3.5-1.3-5.3-1.3c-1.8,0-3.6,0.5-5.3,1.3
		c-1.9,0.1-3.7,0.6-5.2,1.5c-1.6,0.9-2.9,2.2-3.9,3.8c-1.6,1-2.9,2.4-3.8,3.9c-0.9,1.6-1.4,3.4-1.5,5.2
		C187.3,165.2,186.9,167,186.9,168.8z M202.5,168.8c-0.1,0.6-0.3,1.1-0.5,1.6c0.5,0.3,0.9,0.7,1.2,1.1c0.2,0.5,0.3,1.1,0.4,1.6
		c0.6,0,1.1,0.1,1.6,0.4c0.4,0.3,0.8,0.8,1.1,1.2c0.5-0.3,1.1-0.4,1.6-0.5c0.6,0.1,1.1,0.3,1.6,0.5c0.3-0.5,0.7-0.9,1.1-1.2
		c0.5-0.2,1.1-0.3,1.6-0.4c0-0.6,0.1-1.1,0.4-1.6c0.3-0.4,0.8-0.8,1.3-1.1c-0.3-0.5-0.4-1.1-0.5-1.6c0.1-0.6,0.3-1.1,0.5-1.6
		c-0.5-0.3-0.9-0.7-1.3-1.1c-0.2-0.5-0.3-1.1-0.4-1.6c-0.6,0-1.1-0.1-1.6-0.4c-0.4-0.3-0.8-0.8-1.1-1.3c-0.5,0.3-1.1,0.4-1.6,0.5
		c-0.6-0.1-1.1-0.3-1.6-0.5c-0.3,0.5-0.7,0.9-1.1,1.3c-0.5,0.2-1.1,0.3-1.6,0.4c0,0.6-0.1,1.1-0.4,1.6c-0.3,0.4-0.8,0.8-1.2,1.1
		C202.2,167.7,202.4,168.2,202.5,168.8z M195.1,172.2c-0.1-0.1-0.2-0.2-0.3-0.3c-1-1-1.3-2.1-1.3-3.2c-0.1-1,0.3-2.2,1.3-3.2
		c0.1-0.1,0.2-0.2,0.3-0.3c0-0.1-0.1-0.2-0.1-0.4c-0.3-1.4-0.1-2.5,0.5-3.4c0.5-0.9,1.3-1.7,2.7-2.1c0.1,0,0.3-0.1,0.4-0.1
		c0-0.1,0-0.3,0.1-0.4c0.4-1.3,1.2-2.2,2.1-2.7c0.9-0.6,2-0.8,3.4-0.5c0.1,0,0.3,0.1,0.4,0.1c0.1-0.1,0.2-0.2,0.3-0.3
		c1-1,2.1-1.3,3.2-1.3c1-0.1,2.2,0.3,3.2,1.3c0.1,0.1,0.2,0.2,0.3,0.3c0.1,0,0.2-0.1,0.4-0.1c1.4-0.3,2.5-0.1,3.4,0.5
		c0.9,0.5,1.7,1.3,2.1,2.7c0,0.1,0.1,0.3,0.1,0.4c0.1,0,0.3,0,0.4,0.1c1.3,0.4,2.2,1.2,2.7,2.1c0.6,0.9,0.8,2,0.5,3.4
		c0,0.1-0.1,0.3-0.1,0.4c0.1,0.1,0.2,0.2,0.3,0.3c1,1,1.3,2.1,1.3,3.2c0.1,1-0.3,2.2-1.3,3.2c-0.1,0.1-0.2,0.2-0.3,0.3
		c0,0.1,0.1,0.2,0.1,0.4c0.3,1.4,0.1,2.5-0.5,3.4c-0.5,0.9-1.3,1.7-2.7,2.1c-0.1,0-0.3,0.1-0.4,0.1c0,0.1,0,0.3-0.1,0.4
		c-0.4,1.3-1.2,2.2-2.1,2.7c-0.9,0.6-2,0.8-3.4,0.5c-0.1,0-0.3-0.1-0.4-0.1c-0.1,0.1-0.2,0.2-0.3,0.3c-1,1-2.1,1.3-3.2,1.3
		c-1,0.1-2.2-0.3-3.2-1.3c-0.1-0.1-0.2-0.2-0.3-0.3c-0.1,0-0.2,0.1-0.4,0.1c-1.4,0.3-2.5,0.1-3.4-0.5c-0.9-0.5-1.7-1.3-2.1-2.7
		c0-0.1-0.1-0.3-0.1-0.4c-0.1,0-0.3,0-0.4-0.1c-1.3-0.4-2.2-1.2-2.7-2.1c-0.6-0.9-0.8-2-0.5-3.4C195,172.5,195,172.4,195.1,172.2z"
		/>
	<path class="st0" d="M180.5,176.1c-0.3-2.4-0.6-4.9-0.9-7.4c0.2-2.5,0.5-4.9,0.9-7.4c0.9-2.3,1.9-4.6,2.9-6.8c1.4-2,2.9-4,4.4-5.9
		c1.9-1.5,3.9-3,5.9-4.4c2.3-1,4.5-2,6.8-2.9c2.4-0.3,4.9-0.6,7.4-0.9c2.5,0.2,4.9,0.5,7.4,0.9c2.3,0.9,4.6,1.9,6.8,2.9
		c2,1.4,4,2.9,5.9,4.4c1.5,1.9,3,3.9,4.4,5.9c1,2.3,2,4.5,2.9,6.8c0.3,2.4,0.6,4.9,0.9,7.4c-0.2,2.5-0.5,4.9-0.9,7.4
		c-0.9,2.3-1.9,4.6-2.9,6.8c-1.4,2-2.9,4-4.4,5.9c-1.9,1.5-3.9,3-5.9,4.4c-2.3,1-4.5,2-6.8,2.9c-2.4,0.3-4.9,0.6-7.4,0.9
		c-2.5-0.2-4.9-0.5-7.4-0.9c-2.3-0.9-4.6-1.9-6.8-2.9c-2-1.4-4-2.9-5.9-4.4c-1.5-1.9-3-3.9-4.4-5.9
		C182.4,180.7,181.4,178.4,180.5,176.1z M100.7,197.5c-5.4-1.6-10.8-3.4-16.1-5.2c5.1-7.7,11.8-13.7,20.8-15.6
		c9.3,4.7,18.9,8.7,28.9,11.8c-7.1,7.7-13.4,15.9-19.1,24.7c-8.7,2.8-17.5,1-25.8-3.2C93.1,205.8,96.9,201.6,100.7,197.5z
		 M100.7,140.1c-3.9-4.1-7.7-8.3-11.4-12.5c8.3-4.2,17.1-6,25.8-3.2c5.7,8.7,12,17,19.1,24.7c-10,3.1-19.6,7.1-28.9,11.8
		c-9-2-15.6-7.9-20.8-15.6C90,143.4,95.3,141.7,100.7,140.1z M129.5,90.3c-1.3-5.5-2.5-11-3.6-16.5c9.3,0.6,17.7,3.4,23.9,10.2
		c0.6,10.4,1.9,20.7,4.2,30.9c-10.2-2.3-20.5-3.7-30.9-4.2c-6.8-6.2-9.6-14.7-10.2-23.9C118.4,87.8,124,89,129.5,90.3z M179.2,61.6
		c1.6-5.4,3.4-10.8,5.2-16.1c7.7,5.1,13.7,11.8,15.6,20.8c-4.7,9.3-8.7,18.9-11.8,28.9c-7.7-7.1-15.9-13.4-24.7-19.1
		c-2.8-8.7-1-17.5,3.2-25.8C170.9,53.9,175.1,57.7,179.2,61.6z M236.7,61.6c4.1-3.9,8.3-7.7,12.5-11.4c4.2,8.3,6,17.1,3.2,25.8
		c-8.7,5.7-17,12-24.7,19.1c-3.1-10-7.1-19.6-11.8-28.9c2-9,7.9-15.6,15.6-20.8C233.3,50.8,235,56.2,236.7,61.6z M286.4,90.3
		c5.5-1.3,11-2.5,16.5-3.6c-0.6,9.3-3.4,17.7-10.2,23.9c-10.4,0.6-20.7,1.9-30.9,4.2c2.3-10.2,3.7-20.5,4.2-30.9
		c6.2-6.8,14.7-9.6,23.9-10.2C288.9,79.3,287.7,84.8,286.4,90.3z M315.1,140.1c5.4,1.6,10.8,3.4,16.1,5.2
		c-5.1,7.7-11.8,13.7-20.8,15.6c-9.3-4.7-18.9-8.7-28.9-11.8c7.1-7.7,13.4-15.9,19.1-24.7c8.7-2.8,17.5-1,25.8,3.2
		C322.8,131.8,319,135.9,315.1,140.1z M315.1,197.5c3.9,4.1,7.7,8.3,11.4,12.5c-8.3,4.2-17.1,6-25.8,3.2c-5.7-8.7-12-17-19.1-24.7
		c10-3.1,19.6-7.1,28.9-11.8c9,2,15.6,7.9,20.8,15.6C325.9,194.1,320.5,195.9,315.1,197.5z M286.4,247.3c1.3,5.5,2.5,11,3.6,16.5
		c-9.3-0.6-17.7-3.4-23.9-10.2c-0.6-10.4-1.9-20.7-4.2-30.9c10.2,2.3,20.5,3.7,30.9,4.2c6.8,6.2,9.6,14.7,10.2,23.9
		C297.4,249.7,291.9,248.5,286.4,247.3z M236.7,276c-1.6,5.4-3.4,10.8-5.2,16.1c-7.7-5.1-13.7-11.8-15.6-20.8
		c4.7-9.3,8.7-18.9,11.8-28.9c7.7,7.1,15.9,13.4,24.7,19.1c2.8,8.7,1,17.5-3.2,25.8C245,283.6,240.8,279.9,236.7,276z M179.2,276
		c-4.1,3.9-8.3,7.7-12.5,11.4c-4.1-8.3-5.9-17.1-3.2-25.8c8.7-5.7,17-12,24.7-19.1c3.1,10,7.1,19.6,11.8,28.9
		c-2,9-7.9,15.6-15.6,20.8C182.6,286.8,180.8,281.4,179.2,276z M129.5,247.3c-5.5,1.3-11,2.5-16.5,3.6c0.6-9.3,3.4-17.7,10.2-23.9
		c10.4-0.6,20.7-1.9,30.9-4.2c-2.3,10.2-3.7,20.5-4.2,30.9c-6.2,6.8-14.7,9.6-23.9,10.2C127,258.3,128.2,252.8,129.5,247.3z
		 M78.7,203.4c0.8-1.7,1.6-3.5,2.4-5.1c2.5,0.8,5,1.7,7.5,2.5c-1.8,2-3.5,3.9-5.2,5.9C81.8,205.6,80.3,204.5,78.7,203.4z
		 M78.7,134.2c1.5-1.1,3.1-2.2,4.7-3.2c1.7,2,3.5,3.9,5.2,5.9c-2.5,0.8-5,1.6-7.5,2.5C80.3,137.6,79.5,135.9,78.7,134.2z
		 M113.4,74.2c1.9-0.2,3.8-0.4,5.7-0.5c0.5,2.6,1,5.1,1.6,7.7c-2.6-0.5-5.1-1.1-7.7-1.6C113,78,113.1,76.1,113.4,74.2z M173.3,39.6
		c1.7,0.8,3.5,1.6,5.1,2.4c-0.8,2.5-1.7,5-2.5,7.5c-2-1.8-3.9-3.5-5.9-5.2C171.1,42.7,172.2,41.1,173.3,39.6z M242.5,39.6
		c1.1,1.5,2.2,3.1,3.2,4.7c-2,1.7-3.9,3.5-5.9,5.2c-0.8-2.5-1.6-5-2.5-7.5C239.1,41.2,240.8,40.4,242.5,39.6z M302.5,74.2
		c0.2,1.9,0.4,3.8,0.5,5.7c-2.6,0.5-5.1,1-7.7,1.6c0.5-2.6,1.1-5.1,1.6-7.7C298.7,73.8,300.6,74,302.5,74.2z M337.1,134.2
		c-0.8,1.7-1.6,3.5-2.4,5.1c-2.5-0.8-5-1.7-7.5-2.5c1.8-2,3.5-3.9,5.2-5.9C334,132,335.6,133,337.1,134.2z M337.1,203.4
		c-1.5,1.1-3.1,2.2-4.7,3.2c-1.7-2-3.5-3.9-5.2-5.9c2.5-0.8,5-1.6,7.5-2.5C335.6,199.9,336.4,201.7,337.1,203.4z M302.5,263.4
		c-1.9,0.2-3.8,0.4-5.7,0.5c-0.5-2.6-1-5.1-1.6-7.7c2.6,0.5,5.1,1.1,7.7,1.6C302.9,259.6,302.7,261.5,302.5,263.4z M242.5,298
		c-1.7-0.8-3.5-1.6-5.1-2.4c0.8-2.5,1.7-5,2.5-7.5c2,1.8,3.9,3.5,5.9,5.2C244.8,294.9,243.7,296.4,242.5,298z M173.3,298
		c-1.1-1.5-2.2-3.1-3.2-4.7c2-1.7,3.9-3.5,5.9-5.2c0.8,2.5,1.6,5,2.5,7.5C176.8,296.4,175.1,297.2,173.3,298z M113.4,263.4
		c-0.2-1.9-0.4-3.8-0.5-5.7c2.6-0.5,5.1-1,7.7-1.6c-0.5,2.6-1.1,5.1-1.6,7.7C117.1,263.7,115.3,263.6,113.4,263.4z M166,168.8
		c0.3,3.7,0.7,7.3,1.3,10.9c1.3,3.4,2.8,6.8,4.4,10.1c2.1,3,4.3,5.9,6.5,8.8c2.9,2.3,5.8,4.4,8.8,6.5c3.3,1.6,6.7,3,10.1,4.4
		c3.6,0.5,7.2,1,10.9,1.3c3.7-0.3,7.3-0.7,10.9-1.3c3.4-1.3,6.8-2.8,10.1-4.4c3-2.1,5.9-4.3,8.8-6.5c2.3-2.9,4.4-5.8,6.5-8.8
		c1.6-3.3,3-6.7,4.4-10.1c0.5-3.6,1-7.2,1.3-10.9c-0.3-3.7-0.7-7.3-1.3-10.9c-1.3-3.4-2.8-6.8-4.4-10.1c-2.1-3-4.3-5.9-6.5-8.8
		c-2.9-2.3-5.8-4.4-8.8-6.5c-3.3-1.6-6.7-3-10.1-4.4c-3.6-0.5-7.2-1-10.9-1.3c-3.7,0.3-7.3,0.7-10.9,1.3c-3.4,1.3-6.8,2.8-10.1,4.4
		c-3,2.1-5.9,4.3-8.8,6.5c-2.3,2.9-4.4,5.8-6.5,8.8c-1.6,3.3-3,6.7-4.4,10.1C166.7,161.5,166.3,165.1,166,168.8z M160.2,181.6
		c-14.5-2.4-28.3-6.8-41.3-12.8c13.1-6,26.9-10.4,41.3-12.8c-11.3-9.4-21.1-20-29.4-31.7c14.3,1.4,28.4,4.5,42.2,9.6
		c-5.1-13.8-8.2-27.9-9.6-42.2c11.7,8.3,22.4,18.1,31.7,29.4c2.4-14.5,6.8-28.3,12.8-41.3c6,13.1,10.4,26.9,12.8,41.3
		c9.4-11.3,20-21.1,31.7-29.4c-1.4,14.3-4.5,28.4-9.6,42.2c13.8-5.1,27.9-8.2,42.2-9.6c-8.3,11.7-18.1,22.4-29.4,31.7
		c14.5,2.4,28.3,6.8,41.3,12.8c-13.1,6-26.9,10.4-41.3,12.8c11.3,9.4,21.1,20,29.4,31.7c-14.3-1.4-28.4-4.5-42.2-9.6
		c5.1,13.8,8.2,27.9,9.6,42.2c-11.7-8.3-22.4-18.1-31.7-29.4c-2.4,14.5-6.8,28.3-12.8,41.3c-6-13.1-10.4-26.9-12.8-41.3
		c-9.4,11.3-20,21.1-31.7,29.4c1.4-14.3,4.5-28.4,9.6-42.2c-13.8,5.1-27.9,8.2-42.2,9.6C139.1,201.6,148.9,190.9,160.2,181.6z
		 M85.4,168.8c-8.2,11.7-14.5,24.6-19.3,38C77,216,88.8,224,101.8,230.1c-1.2,14.3-0.3,28.5,2.3,42.6c14.1,2.5,28.3,3.5,42.6,2.3
		c6.1,13,14,24.8,23.3,35.8c13.5-4.8,26.3-11.2,38-19.3c11.7,8.2,24.6,14.5,38,19.3c9.2-10.9,17.2-22.8,23.3-35.8
		c14.3,1.2,28.5,0.3,42.6-2.3c2.5-14.1,3.5-28.3,2.3-42.6c13-6.1,24.8-14,35.8-23.3c-4.8-13.5-11.2-26.3-19.3-38
		c8.2-11.7,14.5-24.6,19.3-38c-10.9-9.2-22.8-17.2-35.8-23.3c1.2-14.3,0.3-28.5-2.3-42.6c-14.1-2.5-28.3-3.5-42.6-2.3
		c-6.1-13-14-24.8-23.3-35.8c-13.5,4.8-26.3,11.2-38,19.3c-11.7-8.2-24.6-14.5-38-19.3c-9.2,10.9-17.2,22.8-23.3,35.8
		c-14.3-1.2-28.5-0.3-42.6,2.3c-2.5,14.1-3.5,28.3-2.3,42.6c-13,6.1-24.8,14-35.8,23.3C70.9,144.2,77.2,157.1,85.4,168.8z"/>
</g>
<g>
	<path class="st1" d="M401.5,337.6H13.9c-7.6,0-13-7.2-11-14.5l16.6-59.4c1.4-4.9,5.9-8.3,11-8.3H383c5,0,9.4,3.3,10.9,8l18.5,59.4
		C414.7,330.1,409.2,337.6,401.5,337.6z"/>
	<g>
		<ellipse class="st2" cx="207.9" cy="45.6" rx="29.5" ry="30.3"/>
		<ellipse class="st2" cx="208.4" cy="13.2" rx="16" ry="13.2"/>
		<g>
			<g>
				<path class="st2" d="M168.9,221l-85.5-5.3c-9.7-0.6-18.6,5.5-21.5,14.8L56,249.7c-3.6,11.5,3.2,23.6,14.8,26.7l132,35.1h13.8
					l132-35.1c11.6-3.1,18.3-15.2,14.8-26.7l-5.9-19.1c-2.9-9.3-11.8-15.4-21.5-14.8l-85.5,5.3"/>
				<g>
					<path class="st3" d="M159.6,312.9l20.1-14.7c3.3-2.4,7-4.2,10.9-5.2l0,0c5.3-1.4,10.8-1.6,16.1-0.4l3,0.7l6.9,18.1l-23.6-0.3
						c-1.5,0-3.1,0.1-4.6,0.4l-27.1,5.3C159,317.3,157.6,314.3,159.6,312.9z"/>
					<polygon class="st3" points="268.6,297.6 256.1,267.5 209.7,293.3 216.6,311.4 					"/>
				</g>
				<g>
					<path class="st3" d="M259.8,312.9l-20.1-14.7c-3.3-2.4-7-4.2-10.9-5.2h0c-5.3-1.4-10.8-1.6-16.1-0.4l-3,0.7l-6.9,18.1l23.6-0.3
						c1.5,0,3.1,0.1,4.6,0.4l27.1,5.3C260.4,317.3,261.7,314.3,259.8,312.9z"/>
					<path class="st4" d="M246.8,303.4l-7.1-5.2c-3.3-2.4-7-4.2-10.9-5.2h0c-5.3-1.4-10.8-1.6-16.1-0.4l-3,0.7"/>
					<polygon class="st3" points="150.7,297.6 163.2,267.5 209.7,293.3 202.8,311.4 					"/>
					<line class="st5" x1="111" y1="238.6" x2="163.2" y2="267.5"/>
					<line class="st5" x1="308.4" y1="238.6" x2="256.2" y2="267.5"/>
				</g>
				<line class="st4" x1="172.8" y1="303.4" x2="202.8" y2="311.4"/>
				<path class="st3" d="M369.3,232.5l15.4,6.6c1.6,0.7,3.3,1.1,5,1.2l11.5,0.8c1.6,0.1,3.1-0.3,4.5-1.1l9.2-5.3
					c0.7-0.4,1.1-1.2,1-1.9l0,0c-0.1-1.2-1.4-2-2.6-1.6l-6.8,2.3c-1.6,0.5-3.3,0.5-4.8,0.1l-3.6-1.1l5.3-4.1
					c0.4-0.3,0.7-0.7,0.8-1.2l2.1-9.7c0.2-0.7-0.1-1.5-0.6-2l-4.3-4.1c-0.8-0.8-2.1-0.8-2.9,0l0,0c-0.6,0.6-0.8,1.6-0.5,2.4l1.5,3.6
					c0.3,0.6,0.2,1.4-0.2,2l-2.7,4.4c-0.3,0.5-0.7,0.8-1.3,0.9l-3.3,0.2c-1.8,0.1-3.5-1-4-2.8l0,0c-0.5-1.5,0-3.1,1.2-4.2l4-3.4
					c0.7-0.5,0.9-1.4,0.7-2.3l-0.2-0.8c-0.3-1.2-1.6-1.8-2.8-1.4l-7.7,2.9c-1.7,0.6-3,1.9-3.7,3.5l-1.4,3.3l-3.7-0.3L369.3,232.5z"
					/>
				<path class="st3" d="M46.6,232.5l-15.4,6.6c-1.6,0.7-3.3,1.1-5,1.2l-11.5,0.8c-1.6,0.1-3.1-0.3-4.5-1.1L1,234.7
					c-0.7-0.4-1.1-1.2-1-1.9l0,0c0.1-1.2,1.4-2,2.6-1.6l6.8,2.3c1.6,0.5,3.3,0.5,4.8,0.1l3.6-1.1l-5.3-4.1c-0.4-0.3-0.7-0.7-0.8-1.2
					l-2.1-9.7c-0.2-0.7,0.1-1.5,0.6-2l4.3-4.1c0.8-0.8,2.1-0.8,2.9,0l0,0c0.6,0.6,0.8,1.6,0.5,2.4l-1.5,3.6c-0.3,0.6-0.2,1.4,0.2,2
					l2.7,4.4c0.3,0.5,0.7,0.8,1.3,0.9l3.3,0.2c1.8,0.1,3.5-1,4-2.8l0,0c0.5-1.5,0-3.1-1.2-4.2l-4-3.4c-0.7-0.5-0.9-1.4-0.7-2.3
					l0.2-0.8c0.3-1.2,1.6-1.8,2.8-1.4l7.7,2.9c1.7,0.6,3,1.9,3.7,3.5l1.4,3.3l3.7-0.3L46.6,232.5z"/>
			</g>
			<path class="st3" d="M250.3,221l4.3-62c0.1-1.2,1.7-1.7,2.4-0.7l32,45.5c4.2,5.9,10.3,10.1,17.2,12l63,16.6l5.1-13.1l-51-27.1
				c-5-2.7-9.1-6.6-12-11.5l-35.1-59.8c-7.1-12.1-20.2-19.6-34.2-19.6h-68c-14.1,0-27.1,7.5-34.2,19.6l-35.1,59.8
				c-2.9,4.9-7,8.9-12,11.5l-51,27.1l5.1,13.1l63-16.6c7-1.8,13.1-6.1,17.2-12l32-45.5c0.7-1,2.3-0.6,2.4,0.7l4.3,62
				C165.5,221,207.9,236.8,250.3,221z"/>
			<path class="st6" d="M246.9,101.6l-6.3,28.9c-1.7,7.8-8.6,13.4-16.6,13.4h-32c-8,0-14.9-5.6-16.6-13.4l-6.3-28.9
				c-3.6,0.4-7.1,1.4-10.4,2.7l2.6,54.7l2.1,29.7h89.3l2.1-29.7l2.6-54.7C253.9,103,250.5,102,246.9,101.6z"/>
		</g>
		<path class="st3" d="M216.1,123.8h-16.3c-1.9,0-3.5-1.6-3.5-3.5V78.8h23.2v41.5C219.5,122.3,218,123.8,216.1,123.8z"/>
		<g>
			<path class="st7" d="M196.3,92.6c3.4,1.9,7.4,3.1,11.6,3.1c4.2,0,8.2-1.1,11.6-3.1V79.8h-23.2V92.6z"/>
			<path class="st3" d="M228.8,45.7v24.8c0,11.5-9.3,20.9-20.9,20.9h0c-11.5,0-20.9-9.3-20.9-20.9V45.7c0,0,12.5,1,20.9-4.6
				C216.3,46.7,228.8,45.7,228.8,45.7z"/>
			<path class="st3" d="M228.8,57.9L228.8,57.9c2.2-1.8,5.4-0.1,5.1,2.7l-0.3,2.4c-0.1,1.2-0.7,2.4-1.6,3.2l-3.2,3V57.9z"/>
			<path class="st3" d="M187.1,57.9L187.1,57.9c-2.2-1.8-5.4-0.1-5.1,2.7l0.3,2.4c0.1,1.2,0.7,2.4,1.6,3.2l3.2,3V57.9z"/>
		</g>
	</g>
</g>
</svg>
