<?xml version="1.0" encoding="utf-8"?>
<!-- Generator: Adobe Illustrator 21.0.0, SVG Export Plug-In . SVG Version: 6.00 Build 0)  -->
<svg version="1.1" id="Layer_1" xmlns="http://www.w3.org/2000/svg" xmlns:xlink="http://www.w3.org/1999/xlink" x="0px" y="0px"
	 viewBox="0 0 441.5 400.5" style="enable-background:new 0 0 441.5 400.5;" xml:space="preserve">
<style type="text/css">
	.st0{fill:#A8A8A8;}
	.st1{fill:#FFB464;}
	.st2{fill:#204669;}
	.st3{fill:#F88B89;}
	.st4{fill:#926BB8;}
	.st5{fill:#E17474;}
</style>
<g>
	<path class="st0" d="M51,200.3c-1.5,11.2-2.9,22.3-4.2,33.4c-0.5,4.5-1,9-1.4,13.5c2.6,3.7,5.3,7.4,8,11c6.6,9,13.5,17.9,20.3,26.9
		c4.3,10.4,8.6,20.8,13.1,31.1c1.8,4.2,3.7,8.3,5.6,12.4c4.1,1.9,8.3,3.7,12.4,5.6c10.2,4.5,20.7,8.8,31.1,13.1
		c9,6.8,17.9,13.7,26.9,20.3c3.7,2.7,7.3,5.3,11,8c4.5-0.4,9-0.9,13.5-1.4c11.1-1.2,22.3-2.7,33.4-4.2c11.2,1.5,22.3,2.9,33.4,4.2
		c4.5,0.5,9,1,13.5,1.4c3.7-2.6,7.4-5.3,11-8c9-6.6,17.9-13.5,26.9-20.3c10.4-4.3,20.8-8.6,31.1-13.1c4.2-1.8,8.3-3.7,12.4-5.6
		c1.9-4.1,3.7-8.3,5.6-12.4c4.5-10.2,8.8-20.7,13.1-31.1c6.8-9,13.7-17.9,20.3-26.9c2.7-3.7,5.3-7.3,8-11c-0.4-4.5-0.9-9-1.4-13.5
		c-1.2-11.1-2.7-22.3-4.2-33.4c1.5-11.2,2.9-22.3,4.2-33.4c0.5-4.5,1-9,1.4-13.5c-2.6-3.7-5.3-7.4-8-11c-6.6-9-13.5-17.9-20.3-26.9
		c-4.3-10.4-8.6-20.8-13.1-31.1c-1.8-4.2-3.7-8.3-5.6-12.4c-4.1-1.9-8.3-3.7-12.4-5.6c-10.2-4.5-20.7-8.8-31.1-13.1
		c-9-6.8-17.9-13.7-26.9-20.3c-3.7-2.7-7.3-5.3-11-8c-4.5,0.4-9,0.9-13.5,1.4c-11.1,1.2-22.3,2.7-33.4,4.2
		c-11.2-1.5-22.3-2.9-33.4-4.2c-4.5-0.5-9-1-13.5-1.4c-3.7,2.6-7.4,5.3-11,8c-9,6.6-17.9,13.5-26.9,20.3
		c-10.4,4.3-20.8,8.6-31.1,13.1c-4.2,1.8-8.3,3.7-12.4,5.6c-1.9,4.1-3.7,8.3-5.6,12.4c-4.5,10.2-8.8,20.7-13.1,31.1
		c-6.8,9-13.7,17.9-20.3,26.9c-2.7,3.7-5.3,7.3-8,11c0.4,4.5,0.9,9,1.4,13.5C48,177.9,49.5,189.1,51,200.3z M202.5,205.2
		c2-1.7,3.9-3.3,5.9-4.9c-2-1.6-4-3.2-5.9-4.9c2.5-0.5,5.1-0.9,7.6-1.3c-0.9-2.4-1.8-4.8-2.7-7.2c2.4,0.9,4.8,1.8,7.2,2.7
		c0.4-2.5,0.8-5.1,1.3-7.6c1.7,2,3.3,3.9,4.9,5.9c1.6-2,3.2-4,4.9-5.9c0.5,2.5,0.9,5.1,1.3,7.6c2.4-0.9,4.8-1.8,7.2-2.7
		c-0.9,2.4-1.8,4.8-2.7,7.2c2.5,0.4,5.1,0.8,7.6,1.3c-2,1.7-3.9,3.3-5.9,4.9c2,1.6,4,3.2,5.9,4.9c-2.5,0.5-5.1,0.9-7.6,1.3
		c0.9,2.4,1.8,4.8,2.7,7.2c-2.4-0.9-4.8-1.8-7.2-2.7c-0.4,2.5-0.8,5.1-1.3,7.6c-1.7-2-3.3-3.9-4.9-5.9c-1.6,2-3.2,4-4.9,5.9
		c-0.5-2.5-0.9-5.1-1.3-7.6c-2.4,0.9-4.8,1.8-7.2,2.7c0.9-2.4,1.8-4.8,2.7-7.2C207.5,206.1,205,205.6,202.5,205.2z M81.9,237.5
		c1-3.7,2.1-7.4,3.3-11.1c3,0.6,6,1.1,8.8,1.7c2.4,0.5,5,1.1,7.7,1.8c-0.3,0.8-0.5,1.6-0.8,2.5c0.6,0.6,1.3,1.2,1.9,1.7
		c-2,1.9-4,3.8-5.8,5.4c-2.1,1.9-4.4,3.9-6.7,5.9C87.4,242.8,84.6,240.2,81.9,237.5z M81.9,163.1c2.7-2.7,5.5-5.4,8.4-8
		c2.3,2,4.6,4,6.7,5.9c1.8,1.7,3.8,3.5,5.8,5.4c-0.6,0.6-1.3,1.2-1.9,1.7c0.3,0.8,0.5,1.6,0.8,2.5c-2.7,0.7-5.3,1.3-7.7,1.8
		c-2.8,0.6-5.7,1.2-8.8,1.7C84,170.5,82.9,166.8,81.9,163.1z M119.1,98.6c3.7-1,7.5-1.9,11.3-2.7c1,2.9,2,5.8,2.9,8.5
		c0.7,2.4,1.5,4.9,2.3,7.6c-0.8,0.2-1.7,0.4-2.5,0.5c-0.2,0.8-0.4,1.7-0.5,2.5c-2.7-0.8-5.3-1.6-7.6-2.3c-2.7-0.8-5.5-1.9-8.5-2.9
		C117.2,106.1,118.1,102.3,119.1,98.6z M183.5,61.4c3.7,1,7.4,2.1,11.1,3.3c-0.6,3-1.1,6-1.7,8.8c-0.5,2.4-1.1,5-1.8,7.7
		c-0.8-0.3-1.6-0.5-2.5-0.8c-0.6,0.6-1.2,1.3-1.7,1.9c-1.9-2-3.8-4-5.4-5.8c-1.9-2.1-3.9-4.4-5.9-6.7
		C178.2,66.9,180.8,64.1,183.5,61.4z M258,61.4c2.7,2.7,5.4,5.5,8,8.4c-2,2.3-4,4.6-5.9,6.7c-1.7,1.8-3.5,3.8-5.4,5.8
		c-0.6-0.6-1.2-1.3-1.7-1.9c-0.8,0.3-1.6,0.5-2.5,0.8c-0.7-2.7-1.3-5.3-1.8-7.7c-0.6-2.8-1.2-5.7-1.7-8.8
		C250.5,63.5,254.2,62.4,258,61.4z M322.4,98.6c1,3.7,1.9,7.5,2.7,11.3c-2.9,1-5.8,2-8.5,2.9c-2.4,0.7-4.9,1.5-7.6,2.3
		c-0.2-0.8-0.4-1.7-0.5-2.5c-0.8-0.2-1.7-0.4-2.5-0.5c0.8-2.7,1.6-5.3,2.3-7.6c0.8-2.7,1.9-5.5,2.9-8.5
		C314.9,96.7,318.7,97.6,322.4,98.6z M359.6,163.1c-1,3.7-2.1,7.4-3.3,11.1c-3-0.6-6-1.1-8.8-1.7c-2.4-0.5-5-1.1-7.7-1.8
		c0.3-0.8,0.5-1.6,0.8-2.5c-0.6-0.6-1.3-1.2-1.9-1.7c2-1.9,4-3.8,5.8-5.4c2.1-1.9,4.4-3.9,6.7-5.9
		C354.1,157.7,356.9,160.3,359.6,163.1z M359.6,237.5c-2.7,2.7-5.5,5.4-8.4,8c-2.3-2-4.6-4-6.7-5.9c-1.8-1.7-3.8-3.5-5.8-5.4
		c0.6-0.6,1.3-1.2,1.9-1.7c-0.3-0.8-0.5-1.6-0.8-2.5c2.7-0.7,5.3-1.3,7.7-1.8c2.8-0.6,5.7-1.2,8.8-1.7
		C357.5,230,358.6,233.8,359.6,237.5z M322.4,301.9c-3.7,1-7.5,1.9-11.3,2.7c-1-2.9-2-5.8-2.9-8.5c-0.7-2.4-1.5-4.9-2.3-7.6
		c0.8-0.2,1.7-0.4,2.5-0.5c0.2-0.8,0.4-1.7,0.5-2.5c2.7,0.8,5.3,1.6,7.6,2.3c2.7,0.8,5.5,1.9,8.5,2.9
		C324.3,294.4,323.4,298.2,322.4,301.9z M258,339.1c-3.7-1-7.4-2.1-11.1-3.3c0.6-3,1.1-6,1.7-8.8c0.5-2.4,1.1-5,1.8-7.7
		c0.8,0.3,1.6,0.5,2.5,0.8c0.6-0.6,1.2-1.3,1.7-1.9c1.9,2,3.8,4,5.4,5.8c1.9,2.1,3.9,4.4,5.9,6.7C263.3,333.6,260.7,336.4,258,339.1
		z M183.5,339.1c-2.7-2.7-5.4-5.5-8-8.4c2-2.3,4-4.6,5.9-6.7c1.7-1.8,3.5-3.8,5.4-5.8c0.6,0.6,1.2,1.3,1.7,1.9
		c0.8-0.3,1.6-0.5,2.5-0.8c0.7,2.7,1.3,5.3,1.8,7.7c0.6,2.8,1.2,5.7,1.7,8.8C191,337,187.3,338.1,183.5,339.1z M119.1,301.9
		c-1-3.7-1.9-7.5-2.7-11.3c2.9-1,5.8-2,8.5-2.9c2.4-0.7,4.9-1.5,7.6-2.3c0.2,0.8,0.4,1.7,0.5,2.5c0.8,0.2,1.7,0.4,2.5,0.5
		c-0.8,2.7-1.6,5.3-2.3,7.6c-0.8,2.7-1.9,5.5-2.9,8.5C126.6,303.8,122.8,302.9,119.1,301.9z M59.1,243.6c0.6-6.9,1.3-13.7,2-20.6
		c0.2-2,0.4-4,0.7-6c4.4,4.4,11,6.6,17.7,8.2c-1.5,4.6-2.8,9.3-4.1,14c3.4,3.5,6.9,6.8,10.5,10.1c-5.1,4.7-9.6,9.9-11.2,16
		c-1.2-1.6-2.4-3.2-3.6-4.9C67.1,254.8,63,249.2,59.1,243.6z M59.1,156.9c4-5.7,8-11.3,12.1-16.8c1.2-1.6,2.4-3.2,3.6-4.9
		c1.6,6,6.2,11.2,11.2,16c-3.6,3.3-7.1,6.6-10.5,10.1c1.2,4.7,2.6,9.4,4.1,14c-6.8,1.6-13.3,3.8-17.7,8.2c-0.2-2-0.5-4-0.7-6
		C60.4,170.7,59.7,163.8,59.1,156.9z M102.4,81.9c6.2-2.9,12.5-5.8,18.8-8.5c1.8-0.8,3.7-1.6,5.5-2.4c-1.6,6.1-0.3,12.8,1.8,19.4
		c-4.7,1-9.5,2.2-14.2,3.5c-1.3,4.7-2.5,9.4-3.5,14.2c-6.6-2-13.4-3.4-19.4-1.8c0.8-1.8,1.6-3.7,2.4-5.5
		C96.6,94.5,99.5,88.2,102.4,81.9z M177.4,38.6c6.9,0.6,13.7,1.3,20.6,2c2,0.2,4,0.4,6,0.7c-4.4,4.4-6.6,11-8.2,17.7
		c-4.6-1.5-9.3-2.8-14-4.1c-3.5,3.4-6.8,6.9-10.1,10.5c-4.7-5.1-9.9-9.6-16-11.2c1.6-1.2,3.2-2.4,4.9-3.6
		C166.2,46.6,171.8,42.6,177.4,38.6z M264.1,38.6c5.7,4,11.3,8,16.8,12.1c1.6,1.2,3.2,2.4,4.9,3.6c-6,1.6-11.2,6.2-16,11.2
		c-3.3-3.6-6.6-7.1-10.1-10.5c-4.7,1.2-9.4,2.6-14,4.1c-1.6-6.8-3.8-13.3-8.2-17.7c2-0.2,4-0.5,6-0.7
		C250.3,39.9,257.2,39.2,264.1,38.6z M339.1,81.9c2.9,6.2,5.8,12.5,8.5,18.8c0.8,1.8,1.6,3.7,2.4,5.5c-6.1-1.6-12.8-0.3-19.4,1.8
		c-1-4.7-2.2-9.5-3.5-14.2c-4.7-1.3-9.4-2.5-14.2-3.5c2-6.6,3.4-13.4,1.8-19.4c1.8,0.8,3.7,1.6,5.5,2.4
		C326.6,76.2,332.8,79,339.1,81.9z M382.4,156.9c-0.6,6.9-1.3,13.7-2,20.6c-0.2,2-0.4,4-0.7,6c-4.4-4.4-11-6.6-17.7-8.2
		c1.5-4.6,2.8-9.3,4.1-14c-3.4-3.5-6.9-6.8-10.5-10.1c5.1-4.7,9.6-9.9,11.2-16c1.2,1.6,2.4,3.2,3.6,4.9
		C374.4,145.7,378.5,151.3,382.4,156.9z M382.4,243.6c-4,5.7-8,11.3-12.1,16.8c-1.2,1.6-2.4,3.2-3.6,4.9c-1.6-6-6.2-11.2-11.2-16
		c3.6-3.3,7.1-6.6,10.5-10.1c-1.2-4.7-2.6-9.4-4.1-14c6.8-1.6,13.3-3.8,17.7-8.2c0.2,2,0.5,4,0.7,6
		C381.1,229.8,381.8,236.7,382.4,243.6z M339.1,318.6c-6.2,2.9-12.5,5.8-18.8,8.5c-1.8,0.8-3.7,1.6-5.5,2.4
		c1.6-6.1,0.3-12.8-1.8-19.4c4.7-1,9.5-2.2,14.2-3.5c1.3-4.7,2.5-9.4,3.5-14.2c6.6,2,13.4,3.4,19.4,1.8c-0.8,1.8-1.6,3.7-2.4,5.5
		C344.8,306.1,342,312.4,339.1,318.6z M264.1,361.9c-6.9-0.6-13.7-1.3-20.6-2c-2-0.2-4-0.4-6-0.7c4.4-4.4,6.6-11,8.2-17.7
		c4.6,1.5,9.3,2.8,14,4.1c3.5-3.4,6.8-6.9,10.1-10.5c4.7,5.1,9.9,9.6,16,11.2c-1.6,1.2-3.2,2.4-4.9,3.6
		C275.3,353.9,269.7,358,264.1,361.9z M177.4,361.9c-5.7-4-11.3-8-16.8-12.1c-1.6-1.2-3.2-2.4-4.9-3.6c6-1.6,11.2-6.2,16-11.2
		c3.3,3.6,6.6,7.1,10.1,10.5c4.7-1.2,9.4-2.6,14-4.1c1.6,6.8,3.8,13.3,8.2,17.7c-2,0.2-4,0.5-6,0.7
		C191.2,360.6,184.3,361.3,177.4,361.9z M102.4,318.6c-2.9-6.2-5.8-12.5-8.5-18.8c-0.8-1.8-1.6-3.7-2.4-5.5
		c6.1,1.6,12.8,0.3,19.4-1.8c1,4.7,2.2,9.5,3.5,14.2c4.7,1.3,9.4,2.5,14.2,3.5c-2,6.6-3.4,13.4-1.8,19.4c-1.8-0.8-3.7-1.6-5.5-2.4
		C114.9,324.4,108.6,321.5,102.4,318.6z M174.1,200.3c-0.1,0.1-0.2,0.2-0.3,0.3c-9.6,9.7-19.6,17.3-34.2,14.9
		c-2.9-0.5-5.4-1.3-7.7-2.4c-0.8-0.4-1.6-0.8-2.4-1.3c-4.6-2.8-8.2-6.8-11.2-11.4c3.1-4.6,6.6-8.6,11.2-11.4
		c0.8-0.5,1.6-0.9,2.4-1.3c2.3-1.1,4.8-1.9,7.7-2.4c14.6-2.5,24.6,5.1,34.2,14.9C173.9,200,174,200.2,174.1,200.3z M180.3,223.6
		c0,0.1-0.1,0.3-0.1,0.4c-3.5,13.2-8.3,24.8-22.2,30c-2.7,1-5.3,1.6-7.9,1.7c-0.9,0.1-1.8,0.1-2.7,0.1c-5.4-0.1-10.5-1.8-15.4-4.3
		c0.3-5.5,1.4-10.8,4-15.5c0.5-0.8,0.9-1.6,1.4-2.3c1.4-2.1,3.2-4.1,5.4-5.9c11.4-9.4,23.8-7.9,37-4.2
		C180,223.5,180.2,223.6,180.3,223.6z M197.4,240.7c0,0.1,0.1,0.3,0.1,0.4c3.6,13.2,5.2,25.6-4.2,37c-1.8,2.2-3.8,4-5.9,5.4
		c-0.8,0.5-1.5,1-2.3,1.4c-4.7,2.6-10,3.6-15.5,4c-2.5-5-4.2-10-4.3-15.4c0-0.9,0-1.8,0.1-2.7c0.2-2.5,0.7-5.2,1.7-7.9
		c5.2-13.9,16.7-18.7,30-22.2C197.1,240.8,197.3,240.7,197.4,240.7z M220.7,246.9c0.1,0.1,0.2,0.2,0.3,0.3
		c9.7,9.6,17.3,19.6,14.9,34.2c-0.5,2.9-1.3,5.4-2.4,7.7c-0.4,0.8-0.8,1.6-1.3,2.4c-2.8,4.6-6.8,8.2-11.4,11.2
		c-4.6-3.1-8.6-6.6-11.4-11.2c-0.5-0.8-0.9-1.6-1.3-2.4c-1.1-2.3-1.9-4.8-2.4-7.7c-2.5-14.6,5.1-24.6,14.9-34.2
		C220.5,247.1,220.6,247,220.7,246.9z M244.1,240.7c0.1,0,0.3,0.1,0.4,0.1c13.2,3.5,24.8,8.3,30,22.2c1,2.7,1.5,5.3,1.7,7.9
		c0.1,0.9,0.1,1.8,0.1,2.7c-0.1,5.4-1.8,10.5-4.3,15.4c-5.5-0.3-10.8-1.4-15.5-4c-0.8-0.5-1.6-0.9-2.3-1.4c-2.1-1.4-4.1-3.2-5.9-5.4
		c-9.4-11.4-7.9-23.8-4.2-37C244,241,244,240.8,244.1,240.7z M261.2,223.6c0.1,0,0.3-0.1,0.4-0.1c13.2-3.6,25.6-5.2,37,4.2
		c2.2,1.8,4,3.8,5.4,5.9c0.5,0.8,1,1.5,1.4,2.3c2.6,4.7,3.6,10,4,15.5c-5,2.5-10,4.2-15.4,4.3c-0.9,0-1.8,0-2.7-0.1
		c-2.5-0.2-5.2-0.7-7.9-1.7c-13.9-5.2-18.7-16.7-22.2-30C261.2,223.9,261.2,223.7,261.2,223.6z M267.4,200.3
		c0.1-0.1,0.2-0.2,0.3-0.3c9.6-9.7,19.6-17.3,34.2-14.9c2.9,0.5,5.4,1.3,7.7,2.4c0.8,0.4,1.6,0.8,2.4,1.3c4.6,2.8,8.2,6.8,11.2,11.4
		c-3.1,4.6-6.6,8.6-11.2,11.4c-0.8,0.5-1.6,0.9-2.4,1.3c-2.3,1.1-4.8,1.9-7.7,2.4c-14.6,2.5-24.6-5.1-34.2-14.9
		C267.6,200.5,267.5,200.4,267.4,200.3z M261.2,176.9c0-0.1,0.1-0.3,0.1-0.4c3.5-13.2,8.3-24.8,22.2-30c2.7-1,5.3-1.6,7.9-1.7
		c0.9-0.1,1.8-0.1,2.7-0.1c5.4,0.1,10.5,1.8,15.4,4.3c-0.3,5.5-1.4,10.8-4,15.5c-0.5,0.8-0.9,1.6-1.4,2.3c-1.4,2.1-3.2,4.1-5.4,5.9
		c-11.4,9.4-23.8,7.9-37,4.2C261.5,177,261.3,177,261.2,176.9z M244.1,159.9c0-0.1-0.1-0.3-0.1-0.4c-3.6-13.2-5.2-25.6,4.2-37
		c1.8-2.2,3.8-4,5.9-5.4c0.8-0.5,1.5-1,2.3-1.4c4.7-2.6,10-3.6,15.5-4c2.5,5,4.2,10,4.3,15.4c0,0.9,0,1.8-0.1,2.7
		c-0.2,2.5-0.7,5.2-1.7,7.9c-5.2,13.9-16.7,18.7-30,22.2C244.4,159.8,244.2,159.8,244.1,159.9z M220.7,153.6
		c-0.1-0.1-0.2-0.2-0.3-0.3c-9.7-9.6-17.3-19.6-14.9-34.2c0.5-2.9,1.3-5.4,2.4-7.7c0.4-0.8,0.8-1.6,1.3-2.4
		c2.8-4.6,6.8-8.2,11.4-11.2c4.6,3.1,8.6,6.6,11.4,11.2c0.5,0.8,0.9,1.6,1.3,2.4c1.1,2.3,1.9,4.8,2.4,7.7
		c2.5,14.6-5.1,24.6-14.9,34.2C221,153.4,220.9,153.5,220.7,153.6z M197.4,159.9c-0.1,0-0.3-0.1-0.4-0.1c-13.2-3.5-24.8-8.3-30-22.2
		c-1-2.7-1.5-5.3-1.7-7.9c-0.1-0.9-0.1-1.8-0.1-2.7c0.1-5.4,1.8-10.5,4.3-15.4c5.5,0.3,10.8,1.4,15.5,4c0.8,0.5,1.6,0.9,2.3,1.4
		c2.1,1.4,4.1,3.2,5.9,5.4c9.4,11.4,7.9,23.8,4.2,37C197.5,159.6,197.5,159.7,197.4,159.9z M180.3,176.9c-0.1,0-0.3,0.1-0.4,0.1
		c-13.2,3.6-25.6,5.2-37-4.2c-2.2-1.8-4-3.8-5.4-5.9c-0.5-0.8-1-1.5-1.4-2.3c-2.6-4.7-3.6-10-4-15.5c5-2.5,10-4.2,15.4-4.3
		c0.9,0,1.8,0,2.7,0.1c2.5,0.2,5.2,0.7,7.9,1.7c13.9,5.2,18.7,16.7,22.2,30C180.3,176.6,180.3,176.8,180.3,176.9z M138.2,200.3
		c1.3,0.4,2.6,0.6,4.1,0.7c2.7,0.2,5.1-0.1,7.3-0.7c-2.2-0.6-4.7-0.9-7.3-0.7C140.8,199.7,139.5,199.9,138.2,200.3z M149.3,241.5
		c1.3-0.3,2.6-0.8,3.9-1.4c2.4-1.2,4.3-2.6,6-4.3c-2.3,0.6-4.5,1.5-6.7,3C151.2,239.7,150.2,240.6,149.3,241.5z M179.5,271.8
		c1-0.9,1.8-2,2.7-3.2c1.5-2.2,2.5-4.4,3-6.7c-1.7,1.6-3.1,3.6-4.3,6C180.3,269.2,179.8,270.5,179.5,271.8z M220.7,282.8
		c0.4-1.3,0.6-2.6,0.7-4.1c0.2-2.7-0.1-5.1-0.7-7.3c-0.6,2.2-0.9,4.7-0.7,7.3C220.1,280.2,220.4,281.5,220.7,282.8z M262,271.8
		c-0.3-1.3-0.8-2.6-1.4-3.9c-1.2-2.4-2.6-4.3-4.3-6c0.6,2.3,1.5,4.5,3,6.7C260.2,269.8,261.1,270.8,262,271.8z M292.2,241.5
		c-0.9-1-2-1.8-3.2-2.7c-2.2-1.5-4.4-2.5-6.7-3c1.6,1.7,3.6,3.1,6,4.3C289.6,240.7,290.9,241.2,292.2,241.5z M303.3,200.3
		c-1.3-0.4-2.6-0.6-4.1-0.7c-2.7-0.2-5.1,0.1-7.3,0.7c2.2,0.6,4.7,0.9,7.3,0.7C300.6,200.9,302,200.6,303.3,200.3z M292.2,159
		c-1.3,0.3-2.6,0.8-3.9,1.4c-2.4,1.2-4.3,2.6-6,4.3c2.3-0.6,4.5-1.5,6.7-3C290.2,160.8,291.3,159.9,292.2,159z M262,128.8
		c-1,0.9-1.8,2-2.7,3.2c-1.5,2.2-2.5,4.4-3,6.7c1.7-1.6,3.1-3.6,4.3-6C261.2,131.4,261.7,130.1,262,128.8z M220.7,117.7
		c-0.4,1.3-0.6,2.6-0.7,4.1c-0.2,2.7,0.1,5.1,0.7,7.3c0.6-2.2,0.9-4.7,0.7-7.3C221.4,120.4,221.1,119,220.7,117.7z M179.5,128.8
		c0.3,1.3,0.8,2.6,1.4,3.9c1.2,2.4,2.6,4.3,4.3,6c-0.6-2.3-1.5-4.5-3-6.7C181.3,130.8,180.4,129.7,179.5,128.8z M149.3,159
		c0.9,1,2,1.8,3.2,2.7c2.2,1.5,4.4,2.5,6.7,3c-1.6-1.7-3.6-3.1-6-4.3C151.9,159.8,150.5,159.3,149.3,159z M106.3,200.3
		c0.7,0.4,1.5,0.9,2.2,1.6c4.4,3.9,8.4,8.1,13.2,11.6c5.7,4.2,12.1,7.3,18.9,8.3c-5.4,4.3-9.3,10.2-12.2,16.7
		c-2.4,5.4-3.7,11.1-5.6,16.6c-0.3,0.9-0.7,1.7-1.1,2.4c0.8,0,1.7,0.1,2.7,0.3c5.8,1.2,11.3,2.8,17.2,3.5c7,0.8,14.1,0.3,20.5-2.2
		c-2.5,6.4-3,13.5-2.2,20.5c0.7,5.9,2.3,11.4,3.5,17.2c0.2,0.9,0.3,1.8,0.3,2.7c0.7-0.4,1.5-0.8,2.4-1.1c5.6-1.9,11.2-3.3,16.6-5.6
		c6.5-2.8,12.3-6.8,16.7-12.2c1.1,6.8,4.1,13.2,8.3,18.9c3.5,4.7,7.7,8.8,11.6,13.2c0.6,0.7,1.1,1.4,1.6,2.2
		c0.4-0.7,0.9-1.5,1.6-2.2c3.9-4.4,8.1-8.4,11.6-13.2c4.2-5.7,7.3-12.1,8.3-18.9c4.3,5.4,10.2,9.3,16.7,12.2
		c5.4,2.4,11.1,3.7,16.6,5.6c0.9,0.3,1.7,0.7,2.4,1.1c0-0.8,0.1-1.7,0.3-2.7c1.2-5.8,2.8-11.3,3.5-17.2c0.8-7,0.3-14.1-2.2-20.5
		c6.4,2.5,13.5,3,20.5,2.2c5.9-0.7,11.4-2.3,17.2-3.5c0.9-0.2,1.8-0.3,2.7-0.3c-0.4-0.7-0.8-1.5-1.1-2.4c-1.9-5.6-3.3-11.2-5.6-16.6
		c-2.8-6.5-6.8-12.3-12.2-16.7c6.8-1.1,13.2-4.1,18.9-8.3c4.7-3.5,8.8-7.7,13.2-11.6c0.7-0.6,1.4-1.1,2.2-1.6
		c-0.7-0.4-1.5-0.9-2.2-1.6c-4.4-3.9-8.4-8.1-13.2-11.6c-5.7-4.2-12.1-7.3-18.9-8.3c5.4-4.3,9.3-10.2,12.2-16.7
		c2.4-5.4,3.7-11.1,5.6-16.6c0.3-0.9,0.7-1.7,1.1-2.4c-0.8,0-1.7-0.1-2.7-0.3c-5.8-1.2-11.3-2.8-17.2-3.5c-7-0.8-14.1-0.3-20.5,2.2
		c2.5-6.4,3-13.5,2.2-20.5c-0.7-5.9-2.3-11.4-3.5-17.2c-0.2-0.9-0.3-1.8-0.3-2.7c-0.7,0.4-1.5,0.8-2.4,1.1
		c-5.6,1.9-11.2,3.3-16.6,5.6c-6.5,2.8-12.3,6.8-16.7,12.2c-1.1-6.8-4.1-13.2-8.3-18.9c-3.5-4.7-7.7-8.8-11.6-13.2
		c-0.6-0.7-1.1-1.4-1.6-2.2c-0.4,0.7-0.9,1.5-1.6,2.2c-3.9,4.4-8.1,8.4-11.6,13.2c-4.2,5.7-7.3,12.1-8.3,18.9
		c-4.3-5.4-10.2-9.3-16.7-12.2c-5.4-2.4-11.1-3.7-16.6-5.6c-0.9-0.3-1.7-0.7-2.4-1.1c0,0.8-0.1,1.7-0.3,2.7
		c-1.2,5.8-2.8,11.3-3.5,17.2c-0.8,7-0.3,14.1,2.2,20.5c-6.4-2.5-13.5-3-20.5-2.2c-5.9,0.7-11.4,2.3-17.2,3.5
		c-0.9,0.2-1.8,0.3-2.7,0.3c0.4,0.7,0.8,1.5,1.1,2.4c1.9,5.6,3.3,11.2,5.6,16.6c2.8,6.5,6.8,12.3,12.2,16.7
		c-6.8,1.1-13.2,4.1-18.9,8.3c-4.7,3.5-8.8,7.7-13.2,11.6C107.7,199.3,107,199.8,106.3,200.3z M166.7,214.8
		c3.9-2.9,7.5-6.5,11.1-10.1c1.5-1.5,2.9-2.9,4.3-4.4c-1.4-1.5-2.8-2.9-4.3-4.4c-3.6-3.6-7.2-7.2-11.1-10.1
		c4.9-0.6,9.7-1.8,14.7-3.2c2-0.5,4-1.1,5.9-1.7c-0.5-2-1-4-1.5-6c-1.3-4.9-2.7-9.8-4.6-14.3c4.5,1.9,9.4,3.3,14.3,4.6
		c2,0.5,4,1.1,6,1.5c0.6-2,1.1-3.9,1.7-5.9c1.3-4.9,2.6-9.8,3.2-14.7c2.9,3.9,6.5,7.5,10.1,11.1c1.5,1.5,2.9,2.9,4.4,4.3
		c1.5-1.4,2.9-2.8,4.4-4.3c3.6-3.6,7.2-7.2,10.1-11.1c0.6,4.9,1.8,9.7,3.2,14.7c0.5,2,1.1,4,1.7,5.9c2-0.5,4-1,6-1.5
		c4.9-1.3,9.8-2.7,14.3-4.6c-1.9,4.5-3.3,9.4-4.6,14.3c-0.5,2-1.1,4-1.5,6c2,0.6,3.9,1.1,5.9,1.7c4.9,1.3,9.8,2.6,14.7,3.2
		c-3.9,2.9-7.5,6.5-11.1,10.1c-1.5,1.5-2.9,2.9-4.3,4.4c1.4,1.5,2.8,2.9,4.3,4.4c3.6,3.6,7.2,7.2,11.1,10.1
		c-4.9,0.6-9.7,1.8-14.7,3.2c-2,0.5-4,1.1-5.9,1.7c0.5,2,1,4,1.5,6c1.3,4.9,2.7,9.8,4.6,14.3c-4.5-1.9-9.4-3.3-14.3-4.6
		c-2-0.5-4-1.1-6-1.5c-0.6,2-1.1,3.9-1.7,5.9c-1.3,4.9-2.6,9.8-3.2,14.7c-2.9-3.9-6.5-7.5-10.1-11.1c-1.5-1.5-2.9-2.9-4.4-4.3
		c-1.5,1.4-2.9,2.8-4.4,4.3c-3.6,3.6-7.2,7.2-10.1,11.1c-0.6-4.9-1.8-9.7-3.2-14.7c-0.5-2-1.1-4-1.7-5.9c-2,0.5-4,1-6,1.5
		c-4.9,1.3-9.8,2.7-14.3,4.6c1.9-4.5,3.3-9.4,4.6-14.3c0.5-2,1.1-4,1.5-6c-2-0.6-3.9-1.1-5.9-1.7
		C176.4,216.6,171.6,215.3,166.7,214.8z M190.9,200.3c-3.1,2.7-6.1,5.6-9,8.5c-0.8,0.8-1.7,1.7-2.5,2.6c1.1,0.3,2.3,0.6,3.5,1
		c4,1.1,8,2,12,2.9c-1.3,3.9-2.4,7.9-3.5,11.9c-0.3,1.2-0.6,2.3-0.9,3.5c1.2-0.3,2.3-0.6,3.5-0.9c4-1.1,8-2.2,11.9-3.5
		c0.8,4,1.8,8,2.9,12c0.3,1.2,0.6,2.3,1,3.5c0.9-0.8,1.7-1.7,2.6-2.5c2.9-2.9,5.8-5.9,8.5-9c2.7,3.1,5.6,6.1,8.5,9
		c0.8,0.8,1.7,1.7,2.6,2.5c0.3-1.2,0.6-2.3,1-3.5c1.1-4,2-8,2.9-12c3.9,1.3,7.9,2.4,11.9,3.5c1.2,0.3,2.3,0.6,3.5,0.9
		c-0.3-1.2-0.6-2.3-0.9-3.5c-1.1-4-2.2-8-3.5-11.9c4-0.8,8-1.8,12-2.9c1.2-0.3,2.3-0.6,3.5-1c-0.8-0.9-1.7-1.7-2.5-2.6
		c-2.9-2.9-5.9-5.8-9-8.5c3.1-2.7,6.1-5.6,9-8.5c0.8-0.8,1.7-1.7,2.5-2.6c-1.2-0.3-2.3-0.6-3.5-1c-4-1.1-8-2-12-2.9
		c1.3-3.9,2.4-7.9,3.5-11.9c0.3-1.2,0.6-2.3,0.9-3.5c-1.2,0.3-2.3,0.6-3.5,0.9c-4,1.1-8,2.2-11.9,3.5c-0.8-4-1.8-8-2.9-12
		c-0.3-1.2-0.6-2.3-1-3.5c-0.9,0.8-1.7,1.7-2.6,2.5c-2.9,2.9-5.8,5.9-8.5,9c-2.7-3.1-5.6-6.1-8.5-9c-0.8-0.8-1.7-1.7-2.6-2.5
		c-0.3,1.2-0.6,2.3-1,3.5c-1.1,4-2,8-2.9,12c-3.9-1.3-7.9-2.4-11.9-3.5c-1.2-0.3-2.3-0.6-3.5-0.9c0.3,1.2,0.6,2.3,0.9,3.5
		c1.1,4,2.2,8,3.5,11.9c-4,0.8-8,1.8-12,2.9c-1.2,0.3-2.3,0.6-3.5,1c0.8,0.9,1.7,1.7,2.5,2.6C184.9,194.7,187.9,197.5,190.9,200.3z
		 M122.1,226.7c-3.2-1.2-6.4-2.4-9.7-3.4c-7.7-2.4-15.6-4.4-23.5-6c-7.6-1.5-22-1.9-26-10c0.3-2.3,0.5-4.7,0.8-7.1
		c-0.3-2.4-0.5-4.7-0.8-7.1c4-8.2,18.4-8.5,26-10c7.9-1.6,15.8-3.5,23.5-6c3.3-1,6.5-2.2,9.7-3.4c-2.2-2.7-4.4-5.3-6.7-7.8
		c-5.5-6-11.3-11.6-17.4-16.9c-5.8-5.1-18.1-12.6-17.5-21.7c1.4-1.9,2.8-3.8,4.2-5.7c0.9-2.2,1.9-4.3,2.8-6.5
		c7.6-5.1,20.2,1.9,27.5,4.3c7.7,2.6,15.4,4.8,23.3,6.6c3.4,0.7,6.7,1.4,10.1,1.9c-0.5-3.4-1.2-6.8-1.9-10.1
		c-1.8-7.9-4-15.7-6.6-23.3c-2.5-7.4-9.4-20-4.3-27.5c2.2-0.9,4.3-1.9,6.5-2.8c1.9-1.4,3.8-2.8,5.7-4.2c9.1-0.6,16.5,11.7,21.7,17.5
		c5.4,6.1,11,11.9,16.9,17.4c2.5,2.3,5.1,4.6,7.8,6.7c1.2-3.2,2.4-6.4,3.4-9.7c2.4-7.7,4.4-15.6,6-23.5c1.5-7.6,1.9-22,10-26
		c2.3,0.3,4.7,0.5,7.1,0.8c2.4-0.3,4.7-0.5,7.1-0.8c8.2,4,8.5,18.4,10,26c1.6,7.9,3.5,15.8,6,23.5c1,3.3,2.2,6.5,3.4,9.7
		c2.7-2.2,5.3-4.4,7.8-6.7c6-5.5,11.6-11.3,16.9-17.4c5.1-5.8,12.6-18.1,21.7-17.5c1.9,1.4,3.8,2.8,5.7,4.2c2.2,0.9,4.3,1.9,6.5,2.8
		c5.1,7.6-1.9,20.2-4.3,27.5c-2.6,7.7-4.8,15.4-6.6,23.3c-0.7,3.4-1.4,6.7-1.9,10.1c3.4-0.5,6.8-1.2,10.1-1.9
		c7.9-1.8,15.7-4,23.3-6.6c7.4-2.5,20-9.4,27.5-4.3c0.9,2.2,1.9,4.3,2.8,6.5c1.4,1.9,2.8,3.8,4.2,5.7c0.6,9.1-11.7,16.5-17.5,21.7
		c-6.1,5.4-11.9,11-17.4,16.9c-2.3,2.5-4.6,5.1-6.7,7.8c3.2,1.2,6.4,2.4,9.7,3.4c7.7,2.4,15.6,4.4,23.5,6c7.6,1.5,22,1.9,26,10
		c-0.3,2.3-0.5,4.7-0.8,7.1c0.3,2.4,0.5,4.7,0.8,7.1c-4,8.2-18.4,8.5-26,10c-7.9,1.6-15.8,3.5-23.5,6c-3.3,1-6.5,2.2-9.7,3.4
		c2.2,2.7,4.4,5.3,6.7,7.8c5.5,6,11.3,11.6,17.4,16.9c5.8,5.1,18.1,12.6,17.5,21.7c-1.4,1.9-2.8,3.8-4.2,5.7
		c-0.9,2.2-1.9,4.3-2.8,6.5c-7.6,5.1-20.2-1.9-27.5-4.3c-7.7-2.6-15.4-4.8-23.3-6.6c-3.4-0.7-6.7-1.4-10.1-1.9
		c0.5,3.4,1.2,6.8,1.9,10.1c1.8,7.9,4,15.7,6.6,23.3c2.5,7.4,9.4,20,4.3,27.5c-2.2,0.9-4.3,1.9-6.5,2.8c-1.9,1.4-3.8,2.8-5.7,4.2
		c-9.1,0.6-16.5-11.7-21.7-17.5c-5.4-6.1-11-11.9-16.9-17.4c-2.5-2.3-5.1-4.6-7.8-6.7c-1.2,3.2-2.4,6.4-3.4,9.7
		c-2.4,7.7-4.4,15.6-6,23.5c-1.5,7.6-1.9,22-10,26c-2.3-0.3-4.7-0.5-7.1-0.8c-2.4,0.3-4.7,0.5-7.1,0.8c-8.2-4-8.5-18.4-10-26
		c-1.6-7.9-3.5-15.8-6-23.5c-1-3.3-2.2-6.5-3.4-9.7c-2.7,2.2-5.3,4.4-7.8,6.7c-6,5.5-11.6,11.3-16.9,17.4
		c-5.1,5.8-12.6,18.1-21.7,17.5c-1.9-1.4-3.8-2.8-5.7-4.2c-2.2-0.9-4.3-1.9-6.5-2.8c-5.1-7.6,1.9-20.2,4.3-27.5
		c2.6-7.7,4.8-15.4,6.6-23.3c0.7-3.4,1.4-6.7,1.9-10.1c-3.4,0.5-6.8,1.2-10.1,1.9c-7.9,1.8-15.7,4-23.3,6.6
		c-7.4,2.5-20,9.4-27.5,4.3c-0.9-2.2-1.9-4.3-2.8-6.5c-1.4-1.9-2.8-3.8-4.2-5.7c-0.6-9.1,11.7-16.5,17.5-21.7
		c6.1-5.4,11.9-11,17.4-16.9C117.7,231.9,120,229.4,122.1,226.7z"/>
</g>
<g>
	<path class="st1" d="M408.6,400.5H73.5c-7.1,0-12.3-6.8-10.4-13.6l14.1-52.1c1.3-4.7,5.6-8,10.4-8h305.1c4.8,0,9,3.1,10.3,7.7
		l15.8,52.1C421,393.5,415.8,400.5,408.6,400.5z"/>
	<g>
		<path class="st2" d="M224.7,222l127.1,127.3H378L263.6,178.2h-79.4l-57.8,31.3c-12.3,6.7-18.7,20.8-15.5,34.4l24.5,105.3h22.4
			l-1.5-103.3L224.7,222z"/>
		<path class="st3" d="M184.2,178.2l-10-53.5c-1.2-6.6-6.8-11.5-13.5-11.7l-117.5-5V95.1L176.9,77c4.2-0.6,8.5-0.9,12.8-0.9h62.2
			c4.3,0,8.5,0.3,12.8,0.9l133.8,18.1v12.8l-124.1,4.9c-8.1,0.3-14.3,7.2-13.8,15.3l3.1,50.1"/>
		<path class="st3" d="M43.1,95.1L1.3,96.9c-1,0-1.6,1.1-1.2,2l0.1,0.2c1.4,2.8,4.1,4.7,7.2,5.3l19.5,3.2c2.4,0.4,4,2.7,3.5,5.1
			l-0.6,3.1c-0.5,2.2,0.4,4.5,2.1,5.8l0,0c0.9,0.7,2.3,0.5,2.9-0.5l8.3-13.1V95.1z"/>
		<path class="st3" d="M398.4,95.1l41.8,1.8c1,0,1.6,1.1,1.2,2l-0.1,0.2c-1.4,2.8-4.1,4.7-7.2,5.3l-19.5,3.2c-2.4,0.4-4,2.7-3.5,5.1
			l0.6,3.1c0.5,2.2-0.4,4.5-2.1,5.8l0,0c-0.9,0.7-2.3,0.5-2.9-0.5l-8.3-13.1V95.1z"/>
		<path class="st3" d="M351.8,349.2l-35.3,11.9c-2.6,0.9-2,4.7,0.8,4.7h58.8c2.2,0,4-1.5,4.5-3.7c0.6-3.3,0.7-8.2-2.6-13H351.8z"/>
		<path class="st3" d="M135.4,349.2l-39.2,12.4c-2.4,0.8-1.9,4.3,0.7,4.3h59.3c2.2,0,4-1.5,4.5-3.7c0.6-3.3,0.7-8.2-2.6-13H135.4z"
			/>
		<path class="st4" d="M264.6,77c-4.2-0.6-8.5-0.9-12.8-0.9h-62.2c-4.3,0-8.5,0.3-12.8,0.9l-39.4,5.3l3.5,29.8l19.7,0.8
			c6.7,0.3,12.3,5.2,13.5,11.7l10,53.5h79.4l-3.1-50.1c-0.5-8.1,5.7-15,13.8-15.3l18.8-0.7l-3.7-31.8L264.6,77z"/>
		<g>
			<path class="st2" d="M193,28c0,0-16.9-12.5-4.6-24.5C199.3-7,212.3,9.4,219,10.1c6.7,0.7,12.3,1,14.8,7.1c2.5,6.2,3.4,26-8.4,33
				C212.4,57.9,193,28,193,28z"/>
			<path class="st3" d="M215.1,98.3L215.1,98.3c-5.7,0-10.3-4.6-10.3-10.3V55.8l20.6-5.7V88C225.4,93.7,220.8,98.3,215.1,98.3z"/>
			<path class="st5" d="M204.7,66.8l10-0.6c4.3-0.2,8.2-2.5,10.6-6V50.2l-20.6,5.7V66.8z"/>
			<path class="st3" d="M213.5,30.1l2.2-2.6c1.5-1.8,4.3-1.9,6-0.1c1.1,1.2,1.3,3,0.7,4.5l-2.5,6.5c0,0-3,7.4,5.4,11.8l-2.8,6.1
				c-1.5,3.2-4.6,5.3-8.1,5.5L200,62.6c-3.8,0.2-7-2.8-7-6.6v-9h-2.7c-0.9,0-1.5-1-1.1-1.8L193,38V26.1c0,0,4.6,3.1,9.2,3.3
				C206.7,29.4,210.1,28.1,213.5,30.1z"/>
		</g>
	</g>
</g>
</svg>
