<?xml version="1.0" encoding="utf-8"?>
<!-- Generator: Adobe Illustrator 21.0.0, SVG Export Plug-In . SVG Version: 6.00 Build 0)  -->
<svg version="1.1" id="Layer_1" xmlns="http://www.w3.org/2000/svg" xmlns:xlink="http://www.w3.org/1999/xlink" x="0px" y="0px"
	 viewBox="0 0 327.6 239.6" style="enable-background:new 0 0 327.6 239.6;" xml:space="preserve">
<style type="text/css">
	.st0{fill:#FFFFFF;}
</style>
<g>
	<path class="st0" d="M323.5,128.5c-12.4-4.8-25.3-7.5-38.4-8.2c7.4-29.2,5.6-60.1-5.5-89c-1.1-2.8-3.9-4.4-6.9-4
		c-23.5,3.6-45.3,12.7-63.9,26.2c-9.4-20-23.3-37.9-41.1-52.2c-2.3-1.9-5.6-1.9-7.9,0c-17.8,14.3-31.7,32.2-41.1,52.2
		C100.1,40.1,78.4,31,54.9,27.4c-2.9-0.5-5.8,1.2-6.9,4c-11.2,28.9-12.9,59.8-5.5,89c-13.2,0.7-26.1,3.4-38.4,8.2
		c-2.8,1.1-4.4,3.9-4,6.9c5.7,37,27.6,69,60,87.7c18.7,10.8,39.9,16.5,61.4,16.5c0,0,0,0,0,0c14.5,0,28.7-2.6,42.3-7.5
		c13.6,5,27.8,7.5,42.3,7.5c21.5,0,42.7-5.7,61.4-16.5c32.4-18.7,54.3-50.7,60-87.7C327.9,132.5,326.3,129.6,323.5,128.5z
		 M269.5,40.8c9,26,9.7,53.7,2.4,79.6c-0.6,2.2-1.3,4.3-2,6.5c-0.7,2.2-1.5,4.4-2.4,6.6c-2.4,6.2-5.3,12.2-8.7,18.1
		c-16.1,28-41.4,48.7-71.2,59.3c14.8-17.3,25.2-37.8,30.6-59.8c0.7-2.8,1.3-5.7,1.8-8.6c0.5-2.6,0.9-5.3,1.2-7.9
		c0.8-6.2,1.2-12.4,1.2-18.7c0-17.4-3-34.3-8.8-50.1C230,53.3,249,44.8,269.5,40.8z M58,40.8c20.5,4,39.5,12.6,55.7,24.9
		c-5.7,15.8-8.8,32.8-8.8,50.1c0,6.3,0.4,12.6,1.2,18.7c0.3,2.7,0.7,5.3,1.2,7.9c0.5,2.9,1.1,5.7,1.8,8.6
		c5.4,22,15.9,42.4,30.6,59.8c-29.8-10.6-55.1-31.3-71.2-59.3c-3.4-5.9-6.3-11.9-8.7-18.1c-0.9-2.2-1.7-4.4-2.4-6.6
		c-0.7-2.1-1.4-4.3-2-6.5C48.3,94.4,49.1,66.8,58,40.8z M121.5,226.9L121.5,226.9c-19.2,0-38.3-5.1-55-14.8
		c-27.6-15.9-46.7-42.5-52.9-73.6c10.6-3.6,21.6-5.4,32.8-5.7c3,8.6,6.8,16.9,11.5,25c18.9,32.7,49,56.4,84.6,67.1
		C135.5,226.3,128.5,226.9,121.5,226.9z M175.2,205.9c-2.4,2.6-4.8,5.1-7.4,7.5c-0.1,0.1-0.2,0.2-0.3,0.3c-0.4,0.3-0.7,0.7-1.1,1
		c-0.2,0.2-0.4,0.3-0.6,0.5c-0.7,0.6-1.3,1.2-2,1.8c-0.7-0.6-1.4-1.2-2-1.8c-0.2-0.2-0.4-0.3-0.6-0.5c-0.4-0.3-0.7-0.7-1.1-1
		c-0.1-0.1-0.2-0.2-0.3-0.3c-2.6-2.4-5-4.9-7.4-7.5c-0.1-0.1-0.2-0.2-0.2-0.3c-10.6-11.8-19-25.2-24.8-39.7
		c-1.6-4.1-3.1-8.3-4.3-12.5c-0.9-3.3-1.8-6.5-2.5-9.9c-1.9-9-2.9-18.2-2.9-27.6c0-14.3,2.2-28.2,6.5-41.4c0.7-2.2,1.5-4.3,2.3-6.5
		c0.8-2.1,1.6-4.2,2.5-6.2c7.9-17.9,19.7-34,34.8-47.2c15.2,13.2,27,29.3,34.8,47.2c0.9,2,1.7,4.1,2.5,6.2c0.8,2.1,1.6,4.3,2.3,6.5
		c4.3,13.2,6.5,27.1,6.5,41.4c0,9.4-1,18.6-2.9,27.6c-0.7,3.3-1.5,6.6-2.5,9.9c-1.2,4.2-2.7,8.4-4.3,12.5
		c-5.8,14.5-14.2,28-24.9,39.8C175.4,205.7,175.3,205.8,175.2,205.9z M261.1,212.1c-16.8,9.7-35.8,14.8-55,14.8c-7,0-14-0.7-20.8-2
		c35.5-10.7,65.7-34.4,84.6-67.1c4.6-8,8.5-16.4,11.5-25c11.2,0.2,22.2,2.1,32.8,5.7C307.8,169.6,288.7,196.2,261.1,212.1z"/>
</g>
</svg>
